<svg xmlns="http://www.w3.org/2000/svg" xmlns:xlink="http://www.w3.org/1999/xlink" width="135" height="380" viewBox="0 0 135 380">
  <defs>
    <clipPath id="clip-pattern">
      <rect width="135" height="380"/>
    </clipPath>
  </defs>
  <g id="pattern" clip-path="url(#clip-pattern)">
    <path id="Path_6" data-name="Path 6" d="M-64,464.284s-.032-331.532,0-332.669c.9-24.438,12.237-25.871,27.5-25.871H2" transform="translate(143 -83.744)" fill="none" stroke="#307dee" stroke-width="18" opacity="0.2"/>
    <path id="Path_7" data-name="Path 7" d="M-64,464.284s-.032-331.532,0-332.669c.9-24.438,12.237-25.871,27.5-25.871H2" transform="translate(174 -53.744)" fill="none" stroke="#307dee" stroke-width="18" opacity="0.2"/>
    <path id="Path_8" data-name="Path 8" d="M1.986,464.284s.032-331.532,0-332.669c-.9-24.438-12.237-25.871-27.5-25.871h-38.5" transform="translate(46 -83.744)" fill="none" stroke="#307dee" stroke-width="18" opacity="0.2"/>
    <path id="Path_9" data-name="Path 9" d="M1.986,464.284s.032-331.532,0-332.669c-.9-24.438-12.237-25.871-27.5-25.871h-38.5" transform="translate(17 -53.744)" fill="none" stroke="#307dee" stroke-width="18" opacity="0.2"/>
  </g>
</svg>
