<svg xmlns="http://www.w3.org/2000/svg" xmlns:xlink="http://www.w3.org/1999/xlink" width="150" height="380" viewBox="0 0 150 380">
  <defs>
    <linearGradient id="linear-gradient" x1="50%" x2="50%" y1="100%" y2="0%" gradientUnits="objectBoundingBox">
      <stop offset="100" stop-color="#500050"/>
      <stop offset="0" stop-color="#200020"/>
    </linearGradient>
    <linearGradient id="linear-gradient-2" x1="50%" x2="50%" y1="100%" y2="0%" gradientUnits="objectBoundingBox">
      <stop offset="100" stop-color="#200020"/>
      <stop offset="0" stop-color="#500050"/>
    </linearGradient>
    <clipPath id="clip-harmony">
      <rect width="150" height="380"/>
    </clipPath>
  </defs>
  <g id="harmony" clip-path="url(#clip-harmony)">
    <g id="background" transform="translate(0 -3)">
      <rect id="Rectangle_1" data-name="Rectangle 1" width="150" height="176" transform="translate(0 3)" fill="url(#linear-gradient)"/>
      <rect id="Rectangle_2" data-name="Rectangle 2" width="150" height="80" transform="translate(0 178)" fill="#200020"/>
      <rect id="Rectangle_20" data-name="Rectangle 20" width="150" height="138" transform="translate(0 245)" fill="url(#linear-gradient-2)"/>
    </g>
    <xpath id="Path_29" data-name="Path 29" d="M11.32,0h-1.7V-5.915H3.173V0H1.485V-12.8H3.173v5.5H9.624v-5.5h1.7Zm8.613,0a3.416,3.416,0,0,1-.229-1A3.628,3.628,0,0,1,17,.176a3.357,3.357,0,0,1-2.307-.8,2.573,2.573,0,0,1-.9-2.017,2.688,2.688,0,0,1,1.129-2.307A5.325,5.325,0,0,1,18.1-5.766h1.582v-.747a1.826,1.826,0,0,0-.51-1.358,2.049,2.049,0,0,0-1.5-.505,2.371,2.371,0,0,0-1.459.439,1.3,1.3,0,0,0-.589,1.063H13.983a2.244,2.244,0,0,1,.505-1.375A3.449,3.449,0,0,1,15.86-9.3a4.613,4.613,0,0,1,1.9-.387,3.759,3.759,0,0,1,2.575.822A2.964,2.964,0,0,1,21.3-6.6v4.377a5.351,5.351,0,0,0,.334,2.083V0Zm-2.7-1.239a2.858,2.858,0,0,0,1.45-.4,2.392,2.392,0,0,0,.993-1.028V-4.614H18.4q-2.988,0-2.988,1.749a1.48,1.48,0,0,0,.51,1.2A1.959,1.959,0,0,0,17.235-1.239ZM28.45-8.051a4.873,4.873,0,0,0-.8-.062A2.143,2.143,0,0,0,25.479-6.75V0H23.854V-9.51h1.582l.026,1.1a2.532,2.532,0,0,1,2.268-1.274,1.661,1.661,0,0,1,.721.123ZM31.474-9.51l.044,1.055a3.512,3.512,0,0,1,2.821-1.23,2.719,2.719,0,0,1,2.716,1.529A3.6,3.6,0,0,1,38.29-9.264a3.647,3.647,0,0,1,1.8-.422q3.129,0,3.182,3.313V0H41.643V-6.275A2.184,2.184,0,0,0,41.177-7.8a2.051,2.051,0,0,0-1.564-.505,2.156,2.156,0,0,0-1.5.541,2.193,2.193,0,0,0-.694,1.455V0H35.78V-6.231a1.814,1.814,0,0,0-2.03-2.074,2.175,2.175,0,0,0-2.188,1.362V0H29.936V-9.51ZM45.29-4.843a5.617,5.617,0,0,1,.549-2.514,4.1,4.1,0,0,1,1.529-1.723,4.163,4.163,0,0,1,2.237-.606,4.01,4.01,0,0,1,3.142,1.345,5.174,5.174,0,0,1,1.2,3.577v.114a5.666,5.666,0,0,1-.532,2.492A4.038,4.038,0,0,1,51.9-.439a4.211,4.211,0,0,1-2.272.615A4,4,0,0,1,46.49-1.169a5.147,5.147,0,0,1-1.2-3.56Zm1.635.193a4.068,4.068,0,0,0,.734,2.54,2.349,2.349,0,0,0,1.964.958,2.335,2.335,0,0,0,1.969-.971,4.449,4.449,0,0,0,.729-2.72,4.061,4.061,0,0,0-.743-2.536,2.361,2.361,0,0,0-1.973-.971,2.335,2.335,0,0,0-1.942.958A4.416,4.416,0,0,0,46.925-4.649Zm10.6-4.86.053,1.2a3.465,3.465,0,0,1,2.848-1.371q3.015,0,3.041,3.4V0H61.84V-6.293a2.189,2.189,0,0,0-.47-1.521,1.884,1.884,0,0,0-1.437-.492,2.347,2.347,0,0,0-1.389.422,2.865,2.865,0,0,0-.932,1.107V0H55.986V-9.51Zm11.5,7.128L71.244-9.51h1.74L69.161,1.468q-.888,2.373-2.821,2.373l-.308-.026L65.426,3.7V2.382l.439.035a2.164,2.164,0,0,0,1.288-.334,2.417,2.417,0,0,0,.76-1.222l.36-.967-3.393-9.4h1.775Z" transform="translate(38.5 20)" fill="#fff"/>
    <xpath id="Path_28" data-name="Path 28" d="M4.088-4.437A6.172,6.172,0,0,1,1.63-5.629,2.279,2.279,0,0,1,.861-7.376,2.408,2.408,0,0,1,1.8-9.321a3.736,3.736,0,0,1,2.444-.769,4.078,4.078,0,0,1,1.829.4A3.007,3.007,0,0,1,7.318-8.6a2.8,2.8,0,0,1,.441,1.524H6.439A1.82,1.82,0,0,0,5.865-8.5a2.335,2.335,0,0,0-1.62-.518,2.391,2.391,0,0,0-1.514.428A1.428,1.428,0,0,0,2.188-7.4,1.285,1.285,0,0,0,2.7-6.37,5.062,5.062,0,0,0,4.46-5.6,8.152,8.152,0,0,1,6.4-4.83a2.946,2.946,0,0,1,1.039.981,2.5,2.5,0,0,1,.338,1.319A2.326,2.326,0,0,1,6.836-.591,4.022,4.022,0,0,1,4.313.137,4.678,4.678,0,0,1,2.4-.256,3.221,3.221,0,0,1,1.029-1.333,2.627,2.627,0,0,1,.547-2.885H1.866a1.714,1.714,0,0,0,.667,1.425,2.806,2.806,0,0,0,1.781.523A2.58,2.58,0,0,0,5.906-1.36,1.377,1.377,0,0,0,6.46-2.516a1.351,1.351,0,0,0-.513-1.131A5.911,5.911,0,0,0,4.088-4.437Zm4.867.677a4.341,4.341,0,0,1,.8-2.758A2.592,2.592,0,0,1,11.9-7.533a2.59,2.59,0,0,1,2.071.882l.055-.745h1.162V2.844H13.925V-.684a2.654,2.654,0,0,1-2.037.82A2.551,2.551,0,0,1,9.751-.906a4.438,4.438,0,0,1-.8-2.765Zm1.265.144a3.291,3.291,0,0,0,.537,2A1.707,1.707,0,0,0,12.2-.9a1.894,1.894,0,0,0,1.723-1V-5.517a1.9,1.9,0,0,0-1.709-.978,1.72,1.72,0,0,0-1.456.728A3.583,3.583,0,0,0,10.22-3.616ZM21.786-.731a2.686,2.686,0,0,1-2.167.868,2.3,2.3,0,0,1-1.8-.687,2.974,2.974,0,0,1-.625-2.034V-7.4h1.265v4.778q0,1.682,1.367,1.682a1.893,1.893,0,0,0,1.928-1.08V-7.4h1.265V0h-1.2ZM26.312,0H25.047V-7.4h1.265ZM24.944-9.358a.755.755,0,0,1,.188-.52.706.706,0,0,1,.557-.212.717.717,0,0,1,.561.212.747.747,0,0,1,.191.52.722.722,0,0,1-.191.513.73.73,0,0,1-.561.205.718.718,0,0,1-.557-.205A.73.73,0,0,1,24.944-9.358ZM29.531-7.4l.041.93a2.7,2.7,0,0,1,2.215-1.066q2.345,0,2.365,2.646V0H32.888V-4.895a1.7,1.7,0,0,0-.366-1.183A1.466,1.466,0,0,0,31.4-6.46a1.825,1.825,0,0,0-1.08.328,2.228,2.228,0,0,0-.725.861V0H28.335V-7.4Zm8.593,3.972-.793.827V0H36.066V-10.5h1.265v6.351l.677-.813,2.3-2.434H41.85l-2.878,3.09L42.185,0H40.7Zm6.747-5.763V-7.4h1.381v.978H44.871v4.593a1.027,1.027,0,0,0,.185.667.777.777,0,0,0,.629.222,3.062,3.062,0,0,0,.6-.082V0a3.688,3.688,0,0,1-.971.136,1.575,1.575,0,0,1-1.278-.513,2.2,2.2,0,0,1-.431-1.456V-6.419H42.26V-7.4h1.347V-9.187ZM51.3-6.262a3.79,3.79,0,0,0-.622-.048,1.667,1.667,0,0,0-1.688,1.06V0H47.729V-7.4h1.23l.021.854a1.969,1.969,0,0,1,1.764-.991,1.292,1.292,0,0,1,.561.1Zm.69,2.5a4.369,4.369,0,0,1,.427-1.955,3.187,3.187,0,0,1,1.189-1.34,3.238,3.238,0,0,1,1.74-.472,3.119,3.119,0,0,1,2.444,1.046,4.024,4.024,0,0,1,.933,2.782v.089a4.407,4.407,0,0,1-.414,1.938A3.14,3.14,0,0,1,57.131-.342a3.275,3.275,0,0,1-1.767.479A3.111,3.111,0,0,1,52.927-.909a4,4,0,0,1-.933-2.769Zm1.271.15a3.164,3.164,0,0,0,.571,1.976A1.827,1.827,0,0,0,55.364-.9,1.816,1.816,0,0,0,56.9-1.651a3.46,3.46,0,0,0,.567-2.116,3.159,3.159,0,0,0-.578-1.972,1.836,1.836,0,0,0-1.535-.755,1.816,1.816,0,0,0-1.511.745A3.434,3.434,0,0,0,53.266-3.616ZM61.51-7.4l.041.93a2.7,2.7,0,0,1,2.215-1.066q2.345,0,2.365,2.646V0H64.866V-4.895A1.7,1.7,0,0,0,64.5-6.077a1.466,1.466,0,0,0-1.118-.383,1.825,1.825,0,0,0-1.08.328,2.228,2.228,0,0,0-.725.861V0H60.313V-7.4Zm7.9,7.4H68.147V-7.4h1.265ZM68.045-9.358a.755.755,0,0,1,.188-.52.706.706,0,0,1,.557-.212.717.717,0,0,1,.561.212.747.747,0,0,1,.191.52.722.722,0,0,1-.191.513.73.73,0,0,1-.561.205.718.718,0,0,1-.557-.205A.73.73,0,0,1,68.045-9.358ZM73.917-4.7l1.641-2.7h1.477l-2.42,3.657L77.109,0H75.646L73.938-2.769,72.229,0h-1.47l2.5-3.739L70.834-7.4H72.3Z" transform="translate(36.5 371)" fill="#fff"/>
    <g id="Rectangle_18" data-name="Rectangle 18" transform="translate(8 164)" fill="none" stroke="#cc7cfb" stroke-width="1">
      <rect width="134" height="60" rx="7" stroke="none"/>
      <rect x="0.5" y="0.5" width="133" height="59" rx="6.5" fill="none"/>
    </g>
      <g id="Rectangle_21" data-name="Rectangle 21" transform="translate(8 234)" fill="none" stroke="#cc7cfb" stroke-width="1">
      <rect width="134" height="55" rx="7" stroke="none"/>
      <rect x="0.5" y="0.5" width="133" height="54" rx="6.5" fill="none"/>
    </g>
  </g>
</svg>
