<svg xmlns="http://www.w3.org/2000/svg" xmlns:xlink="http://www.w3.org/1999/xlink" xmlns:lucid="lucid" width="1130" height="527"><g transform="translate(-195 21)" lucid:page-tab-id="0_0"><path d="M320 166a6 6 0 0 1 6-6h148a6 6 0 0 1 6 6v108a6 6 0 0 1-6 6H326a6 6 0 0 1-6-6z" stroke="#282c33" stroke-width="2" fill="#fcfcca"/><use xlink:href="#a" transform="matrix(1,0,0,1,325,165) translate(3.4876543209876587 59.02777777777778)"/><use xlink:href="#b" transform="matrix(1,0,0,1,325,165) translate(65.15432098765433 59.02777777777778)"/><path d="M302.62 190.25h-26.08v-.95h26.08z" stroke="#3a414a" stroke-width=".05" fill="#3a414a"/><path stroke="#3a414a" stroke-width=".05" fill="#3a414a"/><path d="M317.38 189.78l-14.26 4.63v-9.26z" fill="#3a414a"/><path d="M318.92 189.78l-16.28 5.3v-10.6zm-15.33 3.98l12.25-3.98-12.26-3.98z" stroke="#3a414a" stroke-width=".05" fill="#3a414a"/><use xlink:href="#c" transform="matrix(1,0,0,1,206.66172839506171,179.11110236623463) translate(0 14.222222222222223)"/><use xlink:href="#d" transform="matrix(1,0,0,1,206.66172839506171,179.11110236623463) translate(45.23456790123457 14.222222222222223)"/><path d="M202.07 247.6h-1.57v-.96h1.57zm100.55 0h-24.7v-.96h24.7zM200.5 247.6h-.5v-.96h.5z" stroke="#3a414a" stroke-width=".05" fill="#3a414a"/><path d="M317.38 247.1l-14.26 4.65v-9.27z" fill="#3a414a"/><path d="M318.92 247.1l-16.28 5.3v-10.58zm-15.33 4l12.25-4-12.26-3.97z" stroke="#3a414a" stroke-width=".05" fill="#3a414a"/><use xlink:href="#e" transform="matrix(1,0,0,1,202.07407407407408,236.44444444444437) translate(0 14.222222222222223)"/><use xlink:href="#d" transform="matrix(1,0,0,1,202.07407407407408,236.44444444444437) translate(51.20987654320988 14.222222222222223)"/><path d="M480 6a6 6 0 0 1 6-6h148a6 6 0 0 1 6 6v108a6 6 0 0 1-6 6H486a6 6 0 0 1-6-6z" stroke="#282c33" stroke-width="2" fill="#fcfcca"/><use xlink:href="#f" transform="matrix(1,0,0,1,485,5) translate(50.308641975308646 45.27777777777778)"/><use xlink:href="#g" transform="matrix(1,0,0,1,485,5) translate(26.913580246913575 71.94444444444446)"/><path d="M560.48 215.35l-.08 1-.24 1-.4.92-.52.87-.66.77-.77.67-.86.53-.94.4-1 .23-.98.08H481.5v-.94h72.48l.88-.07.85-.2.8-.34.75-.46.66-.56.57-.66.45-.74.33-.8.2-.84.07-.88v-19.8h.96zm0-41.17h-.96v-36.8h.96z" stroke="#3a414a" stroke-width=".05" fill="#3a414a"/><path d="M481.5 221.8h-.5v-.94h.5z" fill="#3a414a"/><path stroke="#3a414a" stroke-width=".05" fill="#3a414a"/><path d="M564.63 136.88h-9.26l4.63-14.26z" fill="#3a414a"/><path d="M565.3 137.36h-10.6l5.3-16.28zm-9.28-.95h7.96L560 124.16z" stroke="#3a414a" stroke-width=".05" fill="#3a414a"/><use xlink:href="#h" transform="matrix(1,0,0,1,536.7901234567901,174.18337294641344) translate(0 14.222222222222223)"/><path d="M641.5 60H684a6 6 0 0 0 6-6V36a6 6 0 0 1 6-6h26.62" stroke="#3a414a" fill="none"/><path d="M641.5 60.48h-.5v-.95h.5z" stroke="#3a414a" stroke-width=".05" fill="#3a414a"/><path d="M737.38 30l-14.26 4.63v-9.27z" stroke="#3a414a" fill="#3a414a"/><path d="M641.5 60H684a6 6 0 0 1 6 6v38a6 6 0 0 0 6 6h26.62" stroke="#3a414a" fill="none"/><path d="M641.5 60.48h-.5v-.95h.5z" stroke="#3a414a" stroke-width=".05" fill="#3a414a"/><path d="M737.38 110l-14.26 4.64v-9.28z" stroke="#3a414a" fill="#3a414a"/><path d="M400 306a6 6 0 0 1 6-6h148a6 6 0 0 1 6 6v108a6 6 0 0 1-6 6H406a6 6 0 0 1-6-6z" stroke="#282c33" stroke-width="2" fill="#fcfcca"/><use xlink:href="#i" transform="matrix(1,0,0,1,405,305) translate(22.993827160493822 45.27777777777778)"/><use xlink:href="#j" transform="matrix(1,0,0,1,405,305) translate(46.604938271604944 71.94444444444446)"/><path d="M602.98 494.92l.05.7.15.62.24.58.33.54.4.48.5.4.52.34.6.24.6.15.7.05h206.85l.7-.05.62-.15.6-.24.52-.33.48-.4.4-.5.34-.53.24-.58.15-.6.05-.72v-11.18H822v11.34l-.1 1.17-.3 1.22-.47 1.15-.64 1.07-.82.94-.95.82-1.08.65-1.15.5-1.22.28-1.17.1H606.92l-1.17-.1-1.22-.3-1.15-.47-1.07-.64-.94-.82-.82-.95-.65-1.08-.5-1.15-.28-1.22-.1-1.17v-14.3H603zm-6.73-137.8l1.22.3 1.15.47 1.07.64.94.82.82.95.65 1.08.5 1.15.28 1.22.1 1.17v94.53H599v-94.37l-.05-.7-.15-.62-.24-.58-.33-.54-.4-.48-.5-.4-.53-.34-.58-.24-.6-.15-.72-.05H563v-3.96h32.08z" stroke="#3a414a" stroke-width=".05" fill="#3a414a"/><path d="M563.05 360.98H561v-3.96h2.05z" fill="#3a414a"/><path stroke="#3a414a" stroke-width=".05" fill="#3a414a"/><path d="M824.63 481.74h-9.26l4.63-14.27z" fill="#3a414a"/><path d="M827.35 483.7h-14.7L820 461.1zm-9.27-3.94h3.84l-1.92-5.9z" stroke="#3a414a" stroke-width=".05" fill="#3a414a"/><use xlink:href="#k" transform="matrix(1,0,0,1,516.9505663580251,459.4542859036084) translate(0 14.222222222222223)"/><use xlink:href="#l" transform="matrix(1,0,0,1,516.9505663580251,459.4542859036084) translate(45.92592592592593 14.222222222222223)"/><use xlink:href="#m" transform="matrix(1,0,0,1,516.9505663580251,459.4542859036084) translate(104.09876543209877 14.222222222222223)"/><path d="M244.25 361.98H202v-3.96h42.25zm132 0h-49.18v-3.96h49.2z" stroke="#3a414a" stroke-width=".05" fill="#3a414a"/><path d="M202.05 361.98H200v-3.96h2.05z" stroke="#3a414a" stroke-width=".05" fill="#3a414a"/><path d="M392.53 360l-14.27 4.63v-9.26z" fill="#3a414a"/><path d="M398.92 360l-22.63 7.35v-14.7zm-18.68 1.92l5.9-1.92-5.9-1.92z" stroke="#3a414a" stroke-width=".05" fill="#3a414a"/><use xlink:href="#n" transform="matrix(1,0,0,1,244.2554818077535,349.3333333333333) translate(0 14.222222222222223)"/><use xlink:href="#d" transform="matrix(1,0,0,1,244.2554818077535,349.3333333333333) translate(58.17283950617284 14.222222222222223)"/><path d="M256.9 451H202v-3.96h54.9zm191.34-7.1l-.08.97-.27 1.1-.44 1.06-.6.97-.74.87-.86.74-.97.6-1.06.44-1.1.26-1.07.1h-55.04v-3.96h54.9l.58-.05.5-.13.5-.2.43-.27.4-.33.33-.4.27-.44.2-.48.12-.5.05-.67z" stroke="#3a414a" stroke-width=".05" fill="#3a414a"/><path d="M202.05 451H200v-3.96h2.05z" stroke="#3a414a" stroke-width=".05" fill="#3a414a"/><path d="M450.9 441.74h-9.27l4.64-14.27z" fill="#3a414a"/><path d="M453.62 443.7h-14.7l7.35-22.62zm-9.27-3.94h3.83l-1.9-5.9z" stroke="#3a414a" stroke-width=".05" fill="#3a414a"/><use xlink:href="#n" transform="matrix(1,0,0,1,256.89773428750186,438.34388333328457) translate(0 14.222222222222223)"/><use xlink:href="#o" transform="matrix(1,0,0,1,256.89773428750186,438.34388333328457) translate(58.17283950617284 14.222222222222223)"/><use xlink:href="#p" transform="matrix(1,0,0,1,256.89773428750186,438.34388333328457) translate(111.40740740740742 14.222222222222223)"/><path d="M290.43 491H202v-3.96h88.43zm217-7.9l-.08 1.16-.3 1.22-.47 1.15-.66 1.07-.8.95-.96.82-1.07.65-1.17.48-1.22.3-1.16.1h-59.18v-3.96h59.03l.7-.06.6-.15.6-.24.53-.34.48-.4.42-.5.33-.53.24-.58.14-.6.05-.72v-39.2h3.94z" stroke="#3a414a" stroke-width=".05" fill="#3a414a"/><path d="M202.05 491H200v-3.96h2.05z" stroke="#3a414a" stroke-width=".05" fill="#3a414a"/><path d="M510.1 441.74h-9.27l4.64-14.27z" fill="#3a414a"/><path d="M512.82 443.7h-14.7l7.35-22.62zm-9.27-3.94h3.83l-1.9-5.9z" stroke="#3a414a" stroke-width=".05" fill="#3a414a"/><use xlink:href="#n" transform="matrix(1,0,0,1,290.4341193235739,478.34388333328457) translate(0 14.222222222222223)"/><use xlink:href="#q" transform="matrix(1,0,0,1,290.4341193235739,478.34388333328457) translate(58.17283950617284 14.222222222222223)"/><use xlink:href="#p" transform="matrix(1,0,0,1,290.4341193235739,478.34388333328457) translate(132.19753086419755 14.222222222222223)"/><path d="M641.5 60H684a6 6 0 0 1 6 6v118a6 6 0 0 0 6 6h26.62" stroke="#3a414a" fill="none"/><path d="M641.5 60.48h-.5v-.95h.5z" stroke="#3a414a" stroke-width=".05" fill="#3a414a"/><path d="M737.38 190l-14.26 4.63v-9.26z" stroke="#3a414a" fill="#3a414a"/><path d="M641.5 60H684a6 6 0 0 1 6 6v198a6 6 0 0 0 6 6h26.62" stroke="#3a414a" fill="none"/><path d="M641.5 60.48h-.5v-.95h.5z" stroke="#3a414a" stroke-width=".05" fill="#3a414a"/><path d="M737.38 270l-14.26 4.63v-9.26z" stroke="#3a414a" fill="#3a414a"/><path d="M641.5 60h41.83a6 6 0 0 1 6 6v278a6 6 0 0 0 6 6h25.95" stroke="#3a414a" fill="none"/><path d="M641.5 60.48h-.5v-.95h.5z" stroke="#3a414a" stroke-width=".05" fill="#3a414a"/><path d="M736.05 350l-14.27 4.63v-9.26z" stroke="#3a414a" fill="#3a414a"/><path d="M641.5 60H684a6 6 0 0 1 6 6v358a6 6 0 0 0 6 6h26.62" stroke="#3a414a" fill="none"/><path d="M641.5 60.48h-.5v-.95h.5z" stroke="#3a414a" stroke-width=".05" fill="#3a414a"/><path d="M737.38 430l-14.26 4.63v-9.26z" stroke="#3a414a" fill="#3a414a"/><path d="M980 186a6 6 0 0 1 6-6h148a6 6 0 0 1 6 6v108a6 6 0 0 1-6 6H986a6 6 0 0 1-6-6z" stroke="#282c33" stroke-width="2" fill="#d7faf5"/><use xlink:href="#r" transform="matrix(1,0,0,1,985,185) translate(2.3148148148148096 59.02777777777778)"/><use xlink:href="#s" transform="matrix(1,0,0,1,985,185) translate(51.635802469135804 59.02777777777778)"/><path d="M1181.1 241.97H1143v-3.94h38.1zm96.16 0h-37.04v-3.94h37.04z" stroke="#3a414a" stroke-width=".05" fill="#3a414a"/><path d="M1143.05 241.97H1141v-3.94h2.05z" fill="#3a414a"/><path stroke="#3a414a" stroke-width=".05" fill="#3a414a"/><path d="M1293.53 240l-14.27 4.63v-9.26z" fill="#3a414a"/><path d="M1299.92 240l-22.63 7.35v-14.7zm-18.68 1.92l5.9-1.92-5.9-1.92z" stroke="#3a414a" stroke-width=".05" fill="#3a414a"/><use xlink:href="#t" transform="matrix(1,0,0,1,1181.1111111111115,229.33333333333334) translate(0 14.222222222222223)"/><use xlink:href="#u" transform="matrix(1,0,0,1,1181.1111111111115,229.33333333333334) translate(31.604938271604944 14.222222222222223)"/><path d="M901.5 30H934a6 6 0 0 1 6 6v198a6 6 0 0 0 6 6h16.62" stroke="#3a414a" fill="none"/><path d="M901.5 30.48h-.5v-.96h.5z" stroke="#3a414a" stroke-width=".05" fill="#3a414a"/><path d="M977.38 240l-14.26 4.63v-9.26z" stroke="#3a414a" fill="#3a414a"/><path d="M901.5 110H934a6 6 0 0 1 6 6v118a6 6 0 0 0 6 6h16.62" stroke="#3a414a" fill="none"/><path d="M901.5 110.47h-.5v-.94h.5z" stroke="#3a414a" stroke-width=".05" fill="#3a414a"/><path d="M977.38 240l-14.26 4.63v-9.26z" stroke="#3a414a" fill="#3a414a"/><path d="M901.5 190H934a6 6 0 0 1 6 6v38a6 6 0 0 0 6 6h16.62" stroke="#3a414a" fill="none"/><path d="M901.5 190.47h-.5v-.94h.5z" stroke="#3a414a" stroke-width=".05" fill="#3a414a"/><path d="M977.38 240l-14.26 4.63v-9.26z" stroke="#3a414a" fill="#3a414a"/><path d="M901.5 270H934a6 6 0 0 0 6-6v-18a6 6 0 0 1 6-6h16.62" stroke="#3a414a" fill="none"/><path d="M901.5 270.48h-.5v-.96h.5z" stroke="#3a414a" stroke-width=".05" fill="#3a414a"/><path d="M977.38 240l-14.26 4.63v-9.26z" stroke="#3a414a" fill="#3a414a"/><path d="M900.17 350h33.16a6 6 0 0 0 6-6v-97.33a6 6 0 0 1 6-6h17.3" stroke="#3a414a" fill="none"/><path d="M900.18 350.48h-.5v-.96h.5z" stroke="#3a414a" stroke-width=".05" fill="#3a414a"/><path d="M977.38 240.67l-14.26 4.63v-9.27z" stroke="#3a414a" fill="#3a414a"/><path d="M901.5 430H934a6 6 0 0 0 6-6V246a6 6 0 0 1 6-6h16.62" stroke="#3a414a" fill="none"/><path d="M901.5 430.48h-.5v-.96h.5z" stroke="#3a414a" stroke-width=".05" fill="#3a414a"/><path d="M977.38 240l-14.26 4.63v-9.26z" stroke="#3a414a" fill="#3a414a"/><path d="M395 119.6l1 .24.94.4.87.52.78.66.66.77.53.86.4.94.23 1 .08.98v16.64h-.96v-16.6l-.06-.88-.2-.85-.34-.8-.45-.75-.56-.66-.65-.57-.74-.45-.8-.33-.84-.2-.88-.08H331.3v-.94h62.72zm-194.5.88v-.95h61.72v.94zM200.5 120.47h-.5v-.94h.5z" stroke="#3a414a" stroke-width=".05" fill="#3a414a"/><path d="M400 157.38l-4.63-14.26h9.26z" fill="#3a414a"/><path d="M400 158.92l-5.3-16.28h10.6zm-3.98-15.33l3.98 12.25 3.98-12.26z" stroke="#3a414a" stroke-width=".05" fill="#3a414a"/><use xlink:href="#v" transform="matrix(1,0,0,1,262.2208674223739,109.33333333333333) translate(0 14.222222222222223)"/><use xlink:href="#w" transform="matrix(1,0,0,1,262.2208674223739,109.33333333333333) translate(51.35802469135803 14.222222222222223)"/><path d="M820 461.76V63M820 463.76" stroke="#3a414a" stroke-width="4" fill="none"/><path d="M821.98 63.05H818V61H822z" stroke="#3a414a" stroke-width=".05" fill="#3a414a"/><path d="M740 6a6 6 0 0 1 6-6h148a6 6 0 0 1 6 6v48a6 6 0 0 1-6 6H746a6 6 0 0 1-6-6z" stroke="#282c33" stroke-width="2" fill="#ffd6f5"/><use xlink:href="#x" transform="matrix(1,0,0,1,745,5) translate(30 20.90277777777778)"/><use xlink:href="#y" transform="matrix(1,0,0,1,745,5) translate(13.333333333333329 47.56944444444444)"/><use xlink:href="#z" transform="matrix(1,0,0,1,745,5) translate(124.32098765432099 47.56944444444444)"/><path d="M738.67 326a6 6 0 0 1 6-6h148a6 6 0 0 1 6 6v48a6 6 0 0 1-6 6h-148a6 6 0 0 1-6-6z" stroke="#282c33" stroke-width="2" fill="#ffd6f5"/><g><use xlink:href="#x" transform="matrix(1,0,0,1,743.6666666666661,325) translate(30 20.90277777777778)"/><use xlink:href="#y" transform="matrix(1,0,0,1,743.6666666666661,325) translate(13.333333333333329 47.56944444444444)"/><use xlink:href="#A" transform="matrix(1,0,0,1,743.6666666666661,325) translate(124.32098765432099 47.56944444444444)"/></g><path d="M740 166a6 6 0 0 1 6-6h148a6 6 0 0 1 6 6v48a6 6 0 0 1-6 6H746a6 6 0 0 1-6-6z" stroke="#282c33" stroke-width="2" fill="#ffd6f5"/><g><use xlink:href="#x" transform="matrix(1,0,0,1,745,165) translate(30 20.90277777777778)"/><use xlink:href="#y" transform="matrix(1,0,0,1,745,165) translate(13.333333333333329 47.56944444444444)"/><use xlink:href="#B" transform="matrix(1,0,0,1,745,165) translate(124.32098765432099 47.56944444444444)"/></g><path d="M740 246a6 6 0 0 1 6-6h148a6 6 0 0 1 6 6v48a6 6 0 0 1-6 6H746a6 6 0 0 1-6-6z" stroke="#282c33" stroke-width="2" fill="#ffd6f5"/><g><use xlink:href="#x" transform="matrix(1,0,0,1,745,245) translate(30 20.90277777777778)"/><use xlink:href="#y" transform="matrix(1,0,0,1,745,245) translate(13.333333333333329 47.56944444444444)"/><use xlink:href="#C" transform="matrix(1,0,0,1,745,245) translate(124.32098765432099 47.56944444444444)"/></g><path d="M740 406a6 6 0 0 1 6-6h148a6 6 0 0 1 6 6v48a6 6 0 0 1-6 6H746a6 6 0 0 1-6-6z" stroke="#282c33" stroke-width="2" fill="#ffd6f5"/><g><use xlink:href="#x" transform="matrix(1,0,0,1,745,405) translate(30 20.90277777777778)"/><use xlink:href="#y" transform="matrix(1,0,0,1,745,405) translate(13.333333333333329 47.56944444444444)"/><use xlink:href="#D" transform="matrix(1,0,0,1,745,405) translate(124.32098765432099 47.56944444444444)"/></g><path d="M740 86a6 6 0 0 1 6-6h148a6 6 0 0 1 6 6v48a6 6 0 0 1-6 6H746a6 6 0 0 1-6-6z" stroke="#282c33" stroke-width="2" fill="#ffd6f5"/><g><use xlink:href="#x" transform="matrix(1,0,0,1,745,85) translate(30 20.90277777777778)"/><use xlink:href="#y" transform="matrix(1,0,0,1,745,85) translate(13.333333333333329 47.56944444444444)"/><use xlink:href="#E" transform="matrix(1,0,0,1,745,85) translate(124.32098765432099 47.56944444444444)"/></g><path d="M292.22 60.48H200.5v-.95h91.72zm170.4 0h-75.84v-.95h75.84zM200.5 60.48h-.5v-.95h.5z" stroke="#3a414a" stroke-width=".05" fill="#3a414a"/><path d="M477.38 60l-14.26 4.64v-9.27z" fill="#3a414a"/><path d="M478.92 60l-16.28 5.3V54.7zm-15.33 3.98L475.84 60l-12.26-3.98z" stroke="#3a414a" stroke-width=".05" fill="#3a414a"/><g><use xlink:href="#F" transform="matrix(1,0,0,1,292.2160743827158,49.33333333333333) translate(0 14.222222222222223)"/><use xlink:href="#G" transform="matrix(1,0,0,1,292.2160743827158,49.33333333333333) translate(51.30864197530865 14.222222222222223)"/></g><defs><path fill="#3a414a" d="M185-189c-5-48-123-54-124 2 14 75 158 14 163 119 3 78-121 87-175 55-17-10-28-26-33-46l33-7c5 56 141 63 141-1 0-78-155-14-162-118-5-82 145-84 179-34 5 7 8 16 11 25" id="H"/><path fill="#3a414a" d="M96-169c-40 0-48 33-48 73s9 75 48 75c24 0 41-14 43-38l32 2c-6 37-31 61-74 61-59 0-76-41-82-99-10-93 101-131 147-64 4 7 5 14 7 22l-32 3c-4-21-16-35-41-35" id="I"/><path fill="#3a414a" d="M141-36C126-15 110 5 73 4 37 3 15-17 15-53c-1-64 63-63 125-63 3-35-9-54-41-54-24 1-41 7-42 31l-33-3c5-37 33-52 76-52 45 0 72 20 72 64v82c-1 20 7 32 28 27v20c-31 9-61-2-59-35zM48-53c0 20 12 33 32 33 41-3 63-29 60-74-43 2-92-5-92 41" id="J"/><path fill="#3a414a" d="M24 0v-261h32V0H24" id="K"/><path fill="#3a414a" d="M100-194c63 0 86 42 84 106H49c0 40 14 67 53 68 26 1 43-12 49-29l28 8c-11 28-37 45-77 45C44 4 14-33 15-96c1-61 26-98 85-98zm52 81c6-60-76-77-97-28-3 7-6 17-6 28h103" id="L"/><g id="a"><use transform="matrix(0.06172839506172839,0,0,0.06172839506172839,0,0)" xlink:href="#H"/><use transform="matrix(0.06172839506172839,0,0,0.06172839506172839,14.814814814814813,0)" xlink:href="#I"/><use transform="matrix(0.06172839506172839,0,0,0.06172839506172839,25.925925925925924,0)" xlink:href="#J"/><use transform="matrix(0.06172839506172839,0,0,0.06172839506172839,38.2716049382716,0)" xlink:href="#K"/><use transform="matrix(0.06172839506172839,0,0,0.06172839506172839,43.148148148148145,0)" xlink:href="#L"/></g><path fill="#3a414a" d="M59-47c-2 24 18 29 38 22v24C64 9 27 4 27-40v-127H5v-23h24l9-43h21v43h35v23H59v120" id="M"/><path fill="#3a414a" d="M100-194c62-1 85 37 85 99 1 63-27 99-86 99S16-35 15-95c0-66 28-99 85-99zM99-20c44 1 53-31 53-75 0-43-8-75-51-75s-53 32-53 75 10 74 51 75" id="N"/><path fill="#3a414a" d="M114-163C36-179 61-72 57 0H25l-1-190h30c1 12-1 29 2 39 6-27 23-49 58-41v29" id="O"/><g id="b"><use transform="matrix(0.06172839506172839,0,0,0.06172839506172839,0,0)" xlink:href="#H"/><use transform="matrix(0.06172839506172839,0,0,0.06172839506172839,14.814814814814813,0)" xlink:href="#L"/><use transform="matrix(0.06172839506172839,0,0,0.06172839506172839,27.160493827160494,0)" xlink:href="#K"/><use transform="matrix(0.06172839506172839,0,0,0.06172839506172839,32.03703703703704,0)" xlink:href="#L"/><use transform="matrix(0.06172839506172839,0,0,0.06172839506172839,44.382716049382715,0)" xlink:href="#I"/><use transform="matrix(0.06172839506172839,0,0,0.06172839506172839,55.49382716049382,0)" xlink:href="#M"/><use transform="matrix(0.06172839506172839,0,0,0.06172839506172839,61.666666666666664,0)" xlink:href="#N"/><use transform="matrix(0.06172839506172839,0,0,0.06172839506172839,74.01234567901234,0)" xlink:href="#O"/></g><path fill="#333" d="M240-174c0 40-23 61-54 70L253 0h-59l-57-94H76V0H24v-248c93 4 217-23 216 74zM76-134c48-2 112 12 112-38 0-48-66-32-112-35v73" id="P"/><path fill="#333" d="M110-194c64 0 96 36 96 99 0 64-35 99-97 99-61 0-95-36-95-99 0-62 34-99 96-99zm-1 164c35 0 45-28 45-65 0-40-10-65-43-65-34 0-45 26-45 65 0 36 10 65 43 65" id="Q"/><path fill="#333" d="M115-3C79 11 28 4 28-45v-112H4v-33h27l15-45h31v45h36v33H77v99c-1 23 16 31 38 25v30" id="R"/><g id="c"><use transform="matrix(0.04938271604938272,0,0,0.04938271604938272,0,0)" xlink:href="#P"/><use transform="matrix(0.04938271604938272,0,0,0.04938271604938272,12.790123456790125,0)" xlink:href="#Q"/><use transform="matrix(0.04938271604938272,0,0,0.04938271604938272,23.60493827160494,0)" xlink:href="#Q"/><use transform="matrix(0.04938271604938272,0,0,0.04938271604938272,34.41975308641975,0)" xlink:href="#R"/></g><path fill="#333" d="M67-125c0 53 21 87 73 88 37 1 54-22 65-47l45 17C233-25 199 4 140 4 58 4 20-42 15-125 8-235 124-281 211-232c18 10 29 29 36 50l-46 12c-8-25-30-41-62-41-52 0-71 34-72 86" id="S"/><path fill="#333" d="M147 0H94L2-248h55l64 206c17-72 42-137 63-206h54" id="T"/><g id="d"><use transform="matrix(0.04938271604938272,0,0,0.04938271604938272,0,0)" xlink:href="#S"/><use transform="matrix(0.04938271604938272,0,0,0.04938271604938272,12.790123456790125,0)" xlink:href="#T"/></g><path fill="#333" d="M230 0l2-204L168 0h-37L68-204 70 0H24v-248h70l56 185 57-185h69V0h-46" id="U"/><path fill="#333" d="M88-194c31-1 46 15 58 34l-1-101h50l1 261h-48c-2-10 0-23-3-31C134-8 116 4 84 4 32 4 16-41 15-95c0-56 19-97 73-99zm17 164c33 0 40-30 41-66 1-37-9-64-41-64s-38 30-39 65c0 43 13 65 39 65" id="V"/><path fill="#333" d="M185-48c-13 30-37 53-82 52C43 2 14-33 14-96s30-98 90-98c62 0 83 45 84 108H66c0 31 8 55 39 56 18 0 30-7 34-22zm-45-69c5-46-57-63-70-21-2 6-4 13-4 21h74" id="W"/><g id="e"><use transform="matrix(0.04938271604938272,0,0,0.04938271604938272,0,0)" xlink:href="#U"/><use transform="matrix(0.04938271604938272,0,0,0.04938271604938272,14.765432098765434,0)" xlink:href="#Q"/><use transform="matrix(0.04938271604938272,0,0,0.04938271604938272,25.58024691358025,0)" xlink:href="#V"/><use transform="matrix(0.04938271604938272,0,0,0.04938271604938272,36.39506172839506,0)" xlink:href="#W"/></g><path fill="#3a414a" d="M33 0v-248h34V0H33" id="X"/><path fill="#3a414a" d="M117-194c89-4 53 116 60 194h-32v-121c0-31-8-49-39-48C34-167 62-67 57 0H25l-1-190h30c1 10-1 24 2 32 11-22 29-35 61-36" id="Y"/><path fill="#3a414a" d="M115-194c55 1 70 41 70 98S169 2 115 4C84 4 66-9 55-30l1 105H24l-1-265h31l2 30c10-21 28-34 59-34zm-8 174c40 0 45-34 45-75s-6-73-45-74c-42 0-51 32-51 76 0 43 10 73 51 73" id="Z"/><path fill="#3a414a" d="M84 4C-5 8 30-112 23-190h32v120c0 31 7 50 39 49 72-2 45-101 50-169h31l1 190h-30c-1-10 1-25-2-33-11 22-28 36-60 37" id="aa"/><g id="f"><use transform="matrix(0.06172839506172839,0,0,0.06172839506172839,0,0)" xlink:href="#X"/><use transform="matrix(0.06172839506172839,0,0,0.06172839506172839,6.172839506172839,0)" xlink:href="#Y"/><use transform="matrix(0.06172839506172839,0,0,0.06172839506172839,18.51851851851852,0)" xlink:href="#Z"/><use transform="matrix(0.06172839506172839,0,0,0.06172839506172839,30.864197530864196,0)" xlink:href="#aa"/><use transform="matrix(0.06172839506172839,0,0,0.06172839506172839,43.20987654320987,0)" xlink:href="#M"/></g><path fill="#3a414a" d="M140-251c81 0 123 46 123 126C263-53 228-8 163 1c7 30 30 48 69 40v23c-55 16-95-15-103-61C56-3 17-48 17-125c0-80 42-126 123-126zm0 227c63 0 89-41 89-101s-29-99-89-99c-61 0-89 39-89 99S79-25 140-24" id="ab"/><path fill="#3a414a" d="M24-231v-30h32v30H24zM24 0v-190h32V0H24" id="ac"/><path fill="#3a414a" d="M9 0v-24l116-142H16v-24h144v24L44-24h123V0H9" id="ad"/><g id="g"><use transform="matrix(0.06172839506172839,0,0,0.06172839506172839,0,0)" xlink:href="#ab"/><use transform="matrix(0.06172839506172839,0,0,0.06172839506172839,17.28395061728395,0)" xlink:href="#aa"/><use transform="matrix(0.06172839506172839,0,0,0.06172839506172839,29.629629629629626,0)" xlink:href="#J"/><use transform="matrix(0.06172839506172839,0,0,0.06172839506172839,41.9753086419753,0)" xlink:href="#Y"/><use transform="matrix(0.06172839506172839,0,0,0.06172839506172839,54.32098765432098,0)" xlink:href="#M"/><use transform="matrix(0.06172839506172839,0,0,0.06172839506172839,60.49382716049382,0)" xlink:href="#ac"/><use transform="matrix(0.06172839506172839,0,0,0.06172839506172839,65.37037037037037,0)" xlink:href="#ad"/><use transform="matrix(0.06172839506172839,0,0,0.06172839506172839,76.48148148148148,0)" xlink:href="#L"/><use transform="matrix(0.06172839506172839,0,0,0.06172839506172839,88.82716049382717,0)" xlink:href="#O"/></g><path fill="#333" d="M169-182c-1-43-94-46-97-3 18 66 151 10 154 114 3 95-165 93-204 36-6-8-10-19-12-30l50-8c3 46 112 56 116 5-17-69-150-10-154-114-4-87 153-88 188-35 5 8 8 18 10 28" id="ae"/><path fill="#333" d="M190-63c-7 42-38 67-86 67-59 0-84-38-90-98-12-110 154-137 174-36l-49 2c-2-19-15-32-35-32-30 0-35 28-38 64-6 74 65 87 74 30" id="af"/><path fill="#333" d="M133-34C117-15 103 5 69 4 32 3 11-16 11-54c-1-60 55-63 116-61 1-26-3-47-28-47-18 1-26 9-28 27l-52-2c7-38 36-58 82-57s74 22 75 68l1 82c-1 14 12 18 25 15v27c-30 8-71 5-69-32zm-48 3c29 0 43-24 42-57-32 0-66-3-65 30 0 17 8 27 23 27" id="ag"/><path fill="#333" d="M25 0v-261h50V0H25" id="ah"/><g id="h"><use transform="matrix(0.04938271604938272,0,0,0.04938271604938272,0,0)" xlink:href="#ae"/><use transform="matrix(0.04938271604938272,0,0,0.04938271604938272,11.851851851851853,0)" xlink:href="#af"/><use transform="matrix(0.04938271604938272,0,0,0.04938271604938272,21.7283950617284,0)" xlink:href="#ag"/><use transform="matrix(0.04938271604938272,0,0,0.04938271604938272,31.60493827160494,0)" xlink:href="#ah"/><use transform="matrix(0.04938271604938272,0,0,0.04938271604938272,36.543209876543216,0)" xlink:href="#W"/></g><path fill="#3a414a" d="M127-220V0H93v-220H8v-28h204v28h-85" id="ai"/><path fill="#3a414a" d="M135-143c-3-34-86-38-87 0 15 53 115 12 119 90S17 21 10-45l28-5c4 36 97 45 98 0-10-56-113-15-118-90-4-57 82-63 122-42 12 7 21 19 24 35" id="aj"/><g id="i"><use transform="matrix(0.06172839506172839,0,0,0.06172839506172839,0,0)" xlink:href="#ai"/><use transform="matrix(0.06172839506172839,0,0,0.06172839506172839,12.716049382716047,0)" xlink:href="#O"/><use transform="matrix(0.06172839506172839,0,0,0.06172839506172839,20.061728395061728,0)" xlink:href="#J"/><use transform="matrix(0.06172839506172839,0,0,0.06172839506172839,32.407407407407405,0)" xlink:href="#Y"/><use transform="matrix(0.06172839506172839,0,0,0.06172839506172839,44.75308641975308,0)" xlink:href="#aj"/><use transform="matrix(0.06172839506172839,0,0,0.06172839506172839,55.86419753086419,0)" xlink:href="#Z"/><use transform="matrix(0.06172839506172839,0,0,0.06172839506172839,68.20987654320987,0)" xlink:href="#N"/><use transform="matrix(0.06172839506172839,0,0,0.06172839506172839,80.55555555555556,0)" xlink:href="#aj"/><use transform="matrix(0.06172839506172839,0,0,0.06172839506172839,91.66666666666667,0)" xlink:href="#L"/></g><g id="j"><use transform="matrix(0.06172839506172839,0,0,0.06172839506172839,0,0)" xlink:href="#H"/><use transform="matrix(0.06172839506172839,0,0,0.06172839506172839,14.814814814814813,0)" xlink:href="#M"/><use transform="matrix(0.06172839506172839,0,0,0.06172839506172839,20.98765432098765,0)" xlink:href="#L"/><use transform="matrix(0.06172839506172839,0,0,0.06172839506172839,33.33333333333333,0)" xlink:href="#Z"/><use transform="matrix(0.06172839506172839,0,0,0.06172839506172839,45.679012345679006,0)" xlink:href="#aj"/></g><path fill="#333" d="M136-208V0H84v-208H4v-40h212v40h-80" id="ak"/><g id="k"><use transform="matrix(0.04938271604938272,0,0,0.04938271604938272,0,0)" xlink:href="#ak"/><use transform="matrix(0.04938271604938272,0,0,0.04938271604938272,9.481481481481481,0)" xlink:href="#Q"/><use transform="matrix(0.04938271604938272,0,0,0.04938271604938272,20.296296296296298,0)" xlink:href="#R"/><use transform="matrix(0.04938271604938272,0,0,0.04938271604938272,26.172839506172842,0)" xlink:href="#ag"/><use transform="matrix(0.04938271604938272,0,0,0.04938271604938272,36.04938271604939,0)" xlink:href="#ah"/></g><path fill="#333" d="M182 0l-62-99L58 0H3l86-130-79-118h55l55 88 55-88h55l-75 118L237 0h-55" id="al"/><path fill="#333" d="M135-194c53 0 70 44 70 98 0 56-19 98-73 100-31 1-45-17-59-34 3 33 2 69 2 105H25l-1-265h48c2 10 0 23 3 31 11-24 29-35 60-35zM114-30c33 0 39-31 40-66 0-38-9-64-40-64-56 0-55 130 0 130" id="am"/><path fill="#333" d="M137-138c1-29-70-34-71-4 15 46 118 7 119 86 1 83-164 76-172 9l43-7c4 19 20 25 44 25 33 8 57-30 24-41C81-84 22-81 20-136c-2-80 154-74 161-7" id="an"/><g id="l"><use transform="matrix(0.04938271604938272,0,0,0.04938271604938272,0,0)" xlink:href="#al"/><use transform="matrix(0.04938271604938272,0,0,0.04938271604938272,11.851851851851853,0)" xlink:href="#am"/><use transform="matrix(0.04938271604938272,0,0,0.04938271604938272,22.666666666666668,0)" xlink:href="#Q"/><use transform="matrix(0.04938271604938272,0,0,0.04938271604938272,33.48148148148148,0)" xlink:href="#an"/><use transform="matrix(0.04938271604938272,0,0,0.04938271604938272,43.358024691358025,0)" xlink:href="#W"/></g><path fill="#333" d="M220-157c-53 9-28 100-34 157h-49v-107c1-27-5-49-29-50C55-147 81-57 75 0H25l-1-190h47c2 12-1 28 3 38 10-53 101-56 108 0 13-22 24-43 59-42 82 1 51 116 57 194h-49v-107c-1-25-5-48-29-50" id="ao"/><path fill="#333" d="M85 4C-2 5 27-109 22-190h50c7 57-23 150 33 157 60-5 35-97 40-157h50l1 190h-47c-2-12 1-28-3-38-12 25-28 42-61 42" id="ap"/><path fill="#333" d="M135-194c87-1 58 113 63 194h-50c-7-57 23-157-34-157-59 0-34 97-39 157H25l-1-190h47c2 12-1 28 3 38 12-26 28-41 61-42" id="aq"/><g id="m"><use transform="matrix(0.04938271604938272,0,0,0.04938271604938272,0,0)" xlink:href="#ag"/><use transform="matrix(0.04938271604938272,0,0,0.04938271604938272,9.876543209876544,0)" xlink:href="#ao"/><use transform="matrix(0.04938271604938272,0,0,0.04938271604938272,25.679012345679016,0)" xlink:href="#Q"/><use transform="matrix(0.04938271604938272,0,0,0.04938271604938272,36.49382716049383,0)" xlink:href="#ap"/><use transform="matrix(0.04938271604938272,0,0,0.04938271604938272,47.308641975308646,0)" xlink:href="#aq"/><use transform="matrix(0.04938271604938272,0,0,0.04938271604938272,58.12345679012346,0)" xlink:href="#R"/></g><g id="n"><use transform="matrix(0.04938271604938272,0,0,0.04938271604938272,0,0)" xlink:href="#al"/><use transform="matrix(0.04938271604938272,0,0,0.04938271604938272,11.851851851851853,0)" xlink:href="#am"/><use transform="matrix(0.04938271604938272,0,0,0.04938271604938272,22.666666666666668,0)" xlink:href="#Q"/><use transform="matrix(0.04938271604938272,0,0,0.04938271604938272,33.48148148148148,0)" xlink:href="#an"/><use transform="matrix(0.04938271604938272,0,0,0.04938271604938272,43.358024691358025,0)" xlink:href="#W"/></g><g id="o"><use transform="matrix(0.04938271604938272,0,0,0.04938271604938272,0,0)" xlink:href="#ae"/><use transform="matrix(0.04938271604938272,0,0,0.04938271604938272,11.851851851851853,0)" xlink:href="#R"/><use transform="matrix(0.04938271604938272,0,0,0.04938271604938272,17.728395061728396,0)" xlink:href="#W"/><use transform="matrix(0.04938271604938272,0,0,0.04938271604938272,27.60493827160494,0)" xlink:href="#am"/><use transform="matrix(0.04938271604938272,0,0,0.04938271604938272,38.41975308641975,0)" xlink:href="#an"/></g><path fill="#333" d="M238-95c0 69-44 99-111 99C63 4 22-25 22-93v-155h51v151c-1 38 19 59 55 60 90 1 49-130 58-211h52v153" id="ar"/><path fill="#333" d="M24 0v-248h52V0H24" id="as"/><g id="p"><use transform="matrix(0.04938271604938272,0,0,0.04938271604938272,0,0)" xlink:href="#ar"/><use transform="matrix(0.04938271604938272,0,0,0.04938271604938272,12.790123456790125,0)" xlink:href="#as"/></g><path fill="#333" d="M140-251c80 0 125 45 125 126S219 4 139 4C58 4 15-44 15-125s44-126 125-126zm-1 214c52 0 73-35 73-88 0-50-21-86-72-86-52 0-73 35-73 86s22 88 72 88" id="at"/><path fill="#333" d="M128 0H69L1-190h53L99-40l48-150h52" id="au"/><g id="q"><use transform="matrix(0.04938271604938272,0,0,0.04938271604938272,0,0)" xlink:href="#at"/><use transform="matrix(0.04938271604938272,0,0,0.04938271604938272,13.827160493827162,0)" xlink:href="#af"/><use transform="matrix(0.04938271604938272,0,0,0.04938271604938272,23.703703703703706,0)" xlink:href="#R"/><use transform="matrix(0.04938271604938272,0,0,0.04938271604938272,29.58024691358025,0)" xlink:href="#ag"/><use transform="matrix(0.04938271604938272,0,0,0.04938271604938272,39.4567901234568,0)" xlink:href="#au"/><use transform="matrix(0.04938271604938272,0,0,0.04938271604938272,49.33333333333334,0)" xlink:href="#W"/><use transform="matrix(0.04938271604938272,0,0,0.04938271604938272,59.209876543209894,0)" xlink:href="#an"/></g><path fill="#3a414a" d="M30-248c87 1 191-15 191 75 0 78-77 80-158 76V0H30v-248zm33 125c57 0 124 11 124-50 0-59-68-47-124-48v98" id="av"/><path fill="#3a414a" d="M179-190L93 31C79 59 56 82 12 73V49c39 6 53-20 64-50L1-190h34L92-34l54-156h33" id="aw"/><g id="r"><use transform="matrix(0.06172839506172839,0,0,0.06172839506172839,0,0)" xlink:href="#av"/><use transform="matrix(0.06172839506172839,0,0,0.06172839506172839,14.814814814814813,0)" xlink:href="#N"/><use transform="matrix(0.06172839506172839,0,0,0.06172839506172839,27.160493827160494,0)" xlink:href="#K"/><use transform="matrix(0.06172839506172839,0,0,0.06172839506172839,32.03703703703704,0)" xlink:href="#aw"/></g><path fill="#3a414a" d="M212-179c-10-28-35-45-73-45-59 0-87 40-87 99 0 60 29 101 89 101 43 0 62-24 78-52l27 14C228-24 195 4 139 4 59 4 22-46 18-125c-6-104 99-153 187-111 19 9 31 26 39 46" id="ax"/><path fill="#3a414a" d="M210-169c-67 3-38 105-44 169h-31v-121c0-29-5-50-35-48C34-165 62-65 56 0H25l-1-190h30c1 10-1 24 2 32 10-44 99-50 107 0 11-21 27-35 58-36 85-2 47 119 55 194h-31v-121c0-29-5-49-35-48" id="ay"/><path fill="#3a414a" d="M115-194c53 0 69 39 70 98 0 66-23 100-70 100C84 3 66-7 56-30L54 0H23l1-261h32v101c10-23 28-34 59-34zm-8 174c40 0 45-34 45-75 0-40-5-75-45-74-42 0-51 32-51 76 0 43 10 73 51 73" id="az"/><g id="s"><use transform="matrix(0.06172839506172839,0,0,0.06172839506172839,0,0)" xlink:href="#ax"/><use transform="matrix(0.06172839506172839,0,0,0.06172839506172839,15.987654320987653,0)" xlink:href="#N"/><use transform="matrix(0.06172839506172839,0,0,0.06172839506172839,28.333333333333332,0)" xlink:href="#ay"/><use transform="matrix(0.06172839506172839,0,0,0.06172839506172839,46.79012345679012,0)" xlink:href="#az"/><use transform="matrix(0.06172839506172839,0,0,0.06172839506172839,59.1358024691358,0)" xlink:href="#ac"/><use transform="matrix(0.06172839506172839,0,0,0.06172839506172839,64.01234567901234,0)" xlink:href="#Y"/><use transform="matrix(0.06172839506172839,0,0,0.06172839506172839,76.35802469135803,0)" xlink:href="#L"/><use transform="matrix(0.06172839506172839,0,0,0.06172839506172839,88.70370370370371,0)" xlink:href="#O"/></g><path fill="#333" d="M4 7l51-268h42L46 7H4" id="aA"/><path fill="#333" d="M138-131c27 9 52 24 51 61 0 53-36 74-89 74S11-19 11-69c0-35 22-54 51-61-78-25-46-121 38-121 51 0 83 19 83 66 0 30-18 49-45 54zm-38-16c24 0 32-13 32-36 1-23-11-34-32-34-22 0-33 12-32 34 0 22 9 36 32 36zm1 116c27 0 37-17 37-43 0-25-13-39-39-39-24 0-37 15-37 40 0 27 11 42 39 42" id="aB"/><g id="t"><use transform="matrix(0.04938271604938272,0,0,0.04938271604938272,0,0)" xlink:href="#T"/><use transform="matrix(0.04938271604938272,0,0,0.04938271604938272,11.851851851851853,0)" xlink:href="#aA"/><use transform="matrix(0.04938271604938272,0,0,0.04938271604938272,16.790123456790127,0)" xlink:href="#aB"/></g><g id="u"><use transform="matrix(0.04938271604938272,0,0,0.04938271604938272,0,0)" xlink:href="#Q"/><use transform="matrix(0.04938271604938272,0,0,0.04938271604938272,10.814814814814815,0)" xlink:href="#ap"/><use transform="matrix(0.04938271604938272,0,0,0.04938271604938272,21.62962962962963,0)" xlink:href="#R"/></g><g id="v"><use transform="matrix(0.04938271604938272,0,0,0.04938271604938272,0,0)" xlink:href="#ae"/><use transform="matrix(0.04938271604938272,0,0,0.04938271604938272,11.851851851851853,0)" xlink:href="#af"/><use transform="matrix(0.04938271604938272,0,0,0.04938271604938272,21.7283950617284,0)" xlink:href="#ag"/><use transform="matrix(0.04938271604938272,0,0,0.04938271604938272,31.60493827160494,0)" xlink:href="#ah"/><use transform="matrix(0.04938271604938272,0,0,0.04938271604938272,36.543209876543216,0)" xlink:href="#W"/></g><g id="w"><use transform="matrix(0.04938271604938272,0,0,0.04938271604938272,0,0)" xlink:href="#ar"/><use transform="matrix(0.04938271604938272,0,0,0.04938271604938272,12.790123456790125,0)" xlink:href="#as"/></g><path fill="#3a414a" d="M206 0h-36l-40-164L89 0H53L-1-190h32L70-26l43-164h34l41 164 42-164h31" id="aC"/><g id="x"><use transform="matrix(0.06172839506172839,0,0,0.06172839506172839,0,0)" xlink:href="#H"/><use transform="matrix(0.06172839506172839,0,0,0.06172839506172839,14.814814814814813,0)" xlink:href="#M"/><use transform="matrix(0.06172839506172839,0,0,0.06172839506172839,20.98765432098765,0)" xlink:href="#L"/><use transform="matrix(0.06172839506172839,0,0,0.06172839506172839,33.33333333333333,0)" xlink:href="#Z"/><use transform="matrix(0.06172839506172839,0,0,0.06172839506172839,45.679012345679006,0)" xlink:href="#aC"/><use transform="matrix(0.06172839506172839,0,0,0.06172839506172839,61.66666666666666,0)" xlink:href="#ac"/><use transform="matrix(0.06172839506172839,0,0,0.06172839506172839,66.5432098765432,0)" xlink:href="#aj"/><use transform="matrix(0.06172839506172839,0,0,0.06172839506172839,77.65432098765432,0)" xlink:href="#L"/></g><g id="y"><use transform="matrix(0.06172839506172839,0,0,0.06172839506172839,0,0)" xlink:href="#M"/><use transform="matrix(0.06172839506172839,0,0,0.06172839506172839,6.172839506172839,0)" xlink:href="#O"/><use transform="matrix(0.06172839506172839,0,0,0.06172839506172839,13.518518518518519,0)" xlink:href="#J"/><use transform="matrix(0.06172839506172839,0,0,0.06172839506172839,25.864197530864196,0)" xlink:href="#Y"/><use transform="matrix(0.06172839506172839,0,0,0.06172839506172839,38.20987654320987,0)" xlink:href="#aj"/><use transform="matrix(0.06172839506172839,0,0,0.06172839506172839,49.32098765432099,0)" xlink:href="#Z"/><use transform="matrix(0.06172839506172839,0,0,0.06172839506172839,61.666666666666664,0)" xlink:href="#N"/><use transform="matrix(0.06172839506172839,0,0,0.06172839506172839,74.01234567901234,0)" xlink:href="#aj"/><use transform="matrix(0.06172839506172839,0,0,0.06172839506172839,85.12345679012346,0)" xlink:href="#L"/><use transform="matrix(0.06172839506172839,0,0,0.06172839506172839,97.46913580246914,0)" xlink:href="#O"/></g><path fill="#3a414a" d="M27 0v-27h64v-190l-56 39v-29l58-41h29v221h61V0H27" id="aD"/><use transform="matrix(0.06172839506172839,0,0,0.06172839506172839,0,0)" xlink:href="#aD" id="z"/><path fill="#3a414a" d="M54-142c48-35 137-8 131 61C196 18 31 33 14-55l32-4c7 23 22 37 52 37 35-1 51-22 54-58 4-55-73-65-99-34H22l8-134h141v27H59" id="aE"/><use transform="matrix(0.06172839506172839,0,0,0.06172839506172839,0,0)" xlink:href="#aE" id="A"/><path fill="#3a414a" d="M126-127c33 6 58 20 58 59 0 88-139 92-164 29-3-8-5-16-6-25l32-3c6 27 21 44 54 44 32 0 52-15 52-46 0-38-36-46-79-43v-28c39 1 72-4 72-42 0-27-17-43-46-43-28 0-47 15-49 41l-32-3c6-42 35-63 81-64 48-1 79 21 79 65 0 36-21 52-52 59" id="aF"/><use transform="matrix(0.06172839506172839,0,0,0.06172839506172839,0,0)" xlink:href="#aF" id="B"/><path fill="#3a414a" d="M155-56V0h-30v-56H8v-25l114-167h33v167h35v25h-35zm-30-156c-27 46-58 90-88 131h88v-131" id="aG"/><use transform="matrix(0.06172839506172839,0,0,0.06172839506172839,0,0)" xlink:href="#aG" id="C"/><path fill="#3a414a" d="M110-160c48 1 74 30 74 79 0 53-28 85-80 85-65 0-83-55-86-122-5-90 50-162 133-122 14 7 22 21 27 39l-31 6c-5-40-67-38-82-6-9 19-15 44-15 74 11-20 30-34 60-33zm-7 138c34 0 49-23 49-58s-16-56-50-56c-29 0-50 16-49 49 1 36 15 65 50 65" id="aH"/><use transform="matrix(0.06172839506172839,0,0,0.06172839506172839,0,0)" xlink:href="#aH" id="D"/><path fill="#3a414a" d="M101-251c82-7 93 87 43 132L82-64C71-53 59-42 53-27h129V0H18c2-99 128-94 128-182 0-28-16-43-45-43s-46 15-49 41l-32-3c6-41 34-60 81-64" id="aI"/><use transform="matrix(0.06172839506172839,0,0,0.06172839506172839,0,0)" xlink:href="#aI" id="E"/><g id="F"><use transform="matrix(0.04938271604938272,0,0,0.04938271604938272,0,0)" xlink:href="#T"/><use transform="matrix(0.04938271604938272,0,0,0.04938271604938272,11.851851851851853,0)" xlink:href="#aA"/><use transform="matrix(0.04938271604938272,0,0,0.04938271604938272,16.790123456790127,0)" xlink:href="#at"/><use transform="matrix(0.04938271604938272,0,0,0.04938271604938272,30.617283950617285,0)" xlink:href="#af"/><use transform="matrix(0.04938271604938272,0,0,0.04938271604938272,40.49382716049384,0)" xlink:href="#R"/></g><path fill="#333" d="M25-224v-37h50v37H25zM25 0v-190h50V0H25" id="aJ"/><g id="G"><use transform="matrix(0.04938271604938272,0,0,0.04938271604938272,0,0)" xlink:href="#aJ"/><use transform="matrix(0.04938271604938272,0,0,0.04938271604938272,4.938271604938272,0)" xlink:href="#aq"/><use transform="matrix(0.04938271604938272,0,0,0.04938271604938272,15.753086419753087,0)" xlink:href="#am"/><use transform="matrix(0.04938271604938272,0,0,0.04938271604938272,26.567901234567902,0)" xlink:href="#ap"/><use transform="matrix(0.04938271604938272,0,0,0.04938271604938272,37.382716049382715,0)" xlink:href="#R"/></g></defs></g></svg>