<svg xmlns="http://www.w3.org/2000/svg" xmlns:xlink="http://www.w3.org/1999/xlink" xmlns:lucid="lucid" width="702" height="623"><g transform="translate(-199 41)" lucid:page-tab-id="0_0"><path d="M480-14a6 6 0 0 1 6-6h148a6 6 0 0 1 6 6V94a6 6 0 0 1-6 6H486a6 6 0 0 1-6-6z" stroke="#282c33" stroke-width="2" fill="#c3f7c8"/><use xlink:href="#a" transform="matrix(1,0,0,1,485,-15) translate(44.81481481481482 45.27777777777778)"/><use xlink:href="#b" transform="matrix(1,0,0,1,485,-15) translate(23.240740740740733 71.94444444444446)"/><path d="M720-14a6 6 0 0 1 6-6h148a6 6 0 0 1 6 6V94a6 6 0 0 1-6 6H726a6 6 0 0 1-6-6z" stroke="#282c33" stroke-width="2" fill="#c3f7c8"/><use xlink:href="#c" transform="matrix(1,0,0,1,725,-15) translate(26.327160493827165 31.52777777777778)"/><use xlink:href="#d" transform="matrix(1,0,0,1,725,-15) translate(105.15432098765432 31.52777777777778)"/><use xlink:href="#e" transform="matrix(1,0,0,1,725,-15) translate(20.740740740740733 58.19444444444445)"/><use xlink:href="#f" transform="matrix(1,0,0,1,725,-15) translate(47.25308641975309 84.86111111111111)"/><path d="M220 326a6 6 0 0 1 6-6h148a6 6 0 0 1 6 6v108a6 6 0 0 1-6 6H226a6 6 0 0 1-6-6z" stroke="#282c33" stroke-width="2" fill="#c3f7c8"/><use xlink:href="#g" transform="matrix(1,0,0,1,232,332) translate(19.26543209876543 26.77777777777778)"/><use xlink:href="#h" transform="matrix(1,0,0,1,232,332) translate(73.58641975308642 26.77777777777778)"/><use xlink:href="#i" transform="matrix(1,0,0,1,232,332) translate(85.9320987654321 26.77777777777778)"/><use xlink:href="#j" transform="matrix(1,0,0,1,232,332) translate(17.475308641975303 53.44444444444445)"/><use xlink:href="#k" transform="matrix(1,0,0,1,232,332) translate(45.22222222222222 80.11111111111111)"/><path d="M720 166a6 6 0 0 1 6-6h148a6 6 0 0 1 6 6v108a6 6 0 0 1-6 6H726a6 6 0 0 1-6-6z" stroke="#282c33" stroke-width="2" fill="#c3f7c8"/><use xlink:href="#l" transform="matrix(1,0,0,1,732,171.99999866256346) translate(1.4259259259259238 53.77777777777778)"/><use xlink:href="#m" transform="matrix(1,0,0,1,732,171.99999866256346) translate(65.56172839506172 53.77777777777778)"/><path d="M220 126a6 6 0 0 1 6-6h148a6 6 0 0 1 6 6v108a6 6 0 0 1-6 6H226a6 6 0 0 1-6-6z" stroke="#282c33" stroke-width="2" fill="#c3f7c8"/><use xlink:href="#n" transform="matrix(1,0,0,1,232,132) translate(21.148148148148145 38.77777777777778)"/><use xlink:href="#o" transform="matrix(1,0,0,1,232,132) translate(22.382716049382708 65.44444444444446)"/><path d="M345.36 539.5h-.95v-38.33h.96zm0-59.67h-.95v-22.45h.96zM345.36 540h-.95v-.5h.96z" stroke="#3a414a" stroke-width=".05" fill="#3a414a"/><path d="M349.52 456.88h-9.27l4.64-14.26z" fill="#3a414a"/><path d="M350.18 457.36H339.6l5.3-16.28zm-9.27-.95h7.97l-3.98-12.25z" stroke="#3a414a" stroke-width=".05" fill="#3a414a"/><use xlink:href="#p" transform="matrix(1,0,0,1,325.16048549377274,479.8332931681711) translate(0 14.222222222222223)"/><path d="M300 318.5v-38a.5.5 0 0 0-.5-.5.5.5 0 0 1-.5-.5v-22.12" stroke="#3a414a" fill="none"/><path d="M300.48 319h-.96v-.5h.96z" stroke="#3a414a" stroke-width=".05" fill="#3a414a"/><path d="M299 242.62l4.63 14.26h-9.26z" stroke="#3a414a" fill="#3a414a"/><path d="M381.5 150.44H424a6 6 0 0 0 6-6V46a6 6 0 0 1 6-6h26.62" stroke="#3a414a" fill="none"/><path d="M381.5 150.92h-.5v-.95h.5z" stroke="#3a414a" stroke-width=".05" fill="#3a414a"/><path d="M477.38 40l-14.26 4.63v-9.27z" stroke="#3a414a" fill="#3a414a"/><path d="M641.5 40h61.12" stroke="#3a414a" fill="none"/><path d="M641.5 40.48h-.5v-.95h.5z" stroke="#3a414a" stroke-width=".05" fill="#3a414a"/><path d="M717.38 40l-14.26 4.63v-9.27z" stroke="#3a414a" fill="#3a414a"/><path d="M440 326a6 6 0 0 1 6-6h188a6 6 0 0 1 6 6v108a6 6 0 0 1-6 6H446a6 6 0 0 1-6-6z" stroke="#282c33" stroke-width="2" fill="#c3f7c8"/><use xlink:href="#q" transform="matrix(1,0,0,1,445,325) translate(1.2962962962962763 59.02777777777778)"/><use xlink:href="#r" transform="matrix(1,0,0,1,445,325) translate(45.740740740740726 59.02777777777778)"/><use xlink:href="#k" transform="matrix(1,0,0,1,445,325) translate(143.14814814814815 59.02777777777778)"/><path d="M641.5 380H674a6 6 0 0 0 6-6V226a6 6 0 0 1 6-6h16.62" stroke="#3a414a" fill="none"/><path d="M641.5 380.48h-.5v-.96h.5z" stroke="#3a414a" stroke-width=".05" fill="#3a414a"/><path d="M717.38 220l-14.26 4.63v-9.26z" stroke="#3a414a" fill="#3a414a"/><path d="M258.7 539.5h-.95v-38.33h.95zm0-59.67h-.95v-22.45h.95zM258.7 540h-.95v-.5h.95z" stroke="#3a414a" stroke-width=".05" fill="#3a414a"/><path d="M262.86 456.88h-9.27l4.62-14.26z" fill="#3a414a"/><path d="M263.5 457.36h-10.57l5.3-16.28zm-9.26-.95h7.96l-3.98-12.25z" stroke="#3a414a" stroke-width=".05" fill="#3a414a"/><use xlink:href="#s" transform="matrix(1,0,0,1,235.03703500999515,479.8333224474482) translate(0 14.222222222222223)"/><path d="M381.5 180H424a6 6 0 0 1 6 6v28a6 6 0 0 0 6 6h266.62" stroke="#3a414a" fill="none"/><path d="M381.5 180.47h-.5v-.94h.5z" stroke="#3a414a" stroke-width=".05" fill="#3a414a"/><path d="M717.38 220l-14.26 4.63v-9.26z" stroke="#3a414a" fill="#3a414a"/><path d="M501.48 539.5h-.96v-53.18h.96zm0-74.52h-.96v-7.6h.96zM501.48 540h-.96v-.5h.96z" stroke="#3a414a" stroke-width=".05" fill="#3a414a"/><path d="M505.63 456.88h-9.26l4.63-14.26z" fill="#3a414a"/><path d="M506.3 457.36h-10.6l5.3-16.28zm-9.28-.95h7.96L501 444.16z" stroke="#3a414a" stroke-width=".05" fill="#3a414a"/><use xlink:href="#t" transform="matrix(1,0,0,1,477.86419451666427,464.9833464923703) translate(0 14.222222222222223)"/><path d="M465.8 539.5h-.94V518h.95zm0-42.84h-.94v-39.28h.95zM465.8 540h-.94v-.5h.95z" stroke="#3a414a" stroke-width=".05" fill="#3a414a"/><path d="M469.97 456.88h-9.27l4.63-14.26z" fill="#3a414a"/><path d="M470.62 457.36h-10.58l5.3-16.28zm-9.27-.95h7.96l-3.97-12.25z" stroke="#3a414a" stroke-width=".05" fill="#3a414a"/><use xlink:href="#u" transform="matrix(1,0,0,1,445.1851814617752,496.66333744498627) translate(0 14.222222222222223)"/><path d="M554.48 539.5h-.96v-53.18h.96zm0-74.52h-.96v-7.6h.96zM554.48 540h-.96v-.5h.96z" stroke="#3a414a" stroke-width=".05" fill="#3a414a"/><path d="M558.63 456.88h-9.26l4.63-14.26z" fill="#3a414a"/><path d="M559.3 457.36h-10.6l5.3-16.28zm-9.28-.95h7.96L554 444.16z" stroke="#3a414a" stroke-width=".05" fill="#3a414a"/><g><use xlink:href="#v" transform="matrix(1,0,0,1,536.2222223994966,464.98332816791026) translate(0 14.222222222222223)"/></g><path d="M600.48 523.62h-.96v-22.45h.96zm0-43.8h-.96V441.5h.96z" stroke="#3a414a" stroke-width=".05" fill="#3a414a"/><path d="M600.48 441.5h-.96v-.5h.96z" fill="#3a414a"/><path stroke="#3a414a" stroke-width=".05" fill="#3a414a"/><path d="M600 538.38l-4.63-14.26h9.26z" fill="#3a414a"/><path d="M600 539.92l-5.3-16.28h10.6zm-3.98-15.33l3.98 12.25 3.98-12.26z" stroke="#3a414a" stroke-width=".05" fill="#3a414a"/><g><use xlink:href="#v" transform="matrix(1,0,0,1,582.2222222222222,479.8332923758866) translate(0 14.222222222222223)"/></g><defs><path fill="#3a414a" d="M212-179c-10-28-35-45-73-45-59 0-87 40-87 99 0 60 29 101 89 101 43 0 62-24 78-52l27 14C228-24 195 4 139 4 59 4 22-46 18-125c-6-104 99-153 187-111 19 9 31 26 39 46" id="w"/><path fill="#3a414a" d="M106-169C34-169 62-67 57 0H25v-261h32l-1 103c12-21 28-36 61-36 89 0 53 116 60 194h-32v-121c2-32-8-49-39-48" id="x"/><path fill="#3a414a" d="M100-194c62-1 85 37 85 99 1 63-27 99-86 99S16-35 15-95c0-66 28-99 85-99zM99-20c44 1 53-31 53-75 0-43-8-75-51-75s-53 32-53 75 10 74 51 75" id="y"/><path fill="#3a414a" d="M114-163C36-179 61-72 57 0H25l-1-190h30c1 12-1 29 2 39 6-27 23-49 58-41v29" id="z"/><path fill="#3a414a" d="M85-194c31 0 48 13 60 33l-1-100h32l1 261h-30c-2-10 0-23-3-31C134-8 116 4 85 4 32 4 16-35 15-94c0-66 23-100 70-100zm9 24c-40 0-46 34-46 75 0 40 6 74 45 74 42 0 51-32 51-76 0-42-9-74-50-73" id="A"/><g id="a"><use transform="matrix(0.06172839506172839,0,0,0.06172839506172839,0,0)" xlink:href="#w"/><use transform="matrix(0.06172839506172839,0,0,0.06172839506172839,15.987654320987653,0)" xlink:href="#x"/><use transform="matrix(0.06172839506172839,0,0,0.06172839506172839,28.333333333333332,0)" xlink:href="#y"/><use transform="matrix(0.06172839506172839,0,0,0.06172839506172839,40.67901234567901,0)" xlink:href="#z"/><use transform="matrix(0.06172839506172839,0,0,0.06172839506172839,48.02469135802469,0)" xlink:href="#A"/></g><path fill="#3a414a" d="M100-194c63 0 86 42 84 106H49c0 40 14 67 53 68 26 1 43-12 49-29l28 8c-11 28-37 45-77 45C44 4 14-33 15-96c1-61 26-98 85-98zm52 81c6-60-76-77-97-28-3 7-6 17-6 28h103" id="B"/><path fill="#3a414a" d="M96-169c-40 0-48 33-48 73s9 75 48 75c24 0 41-14 43-38l32 2c-6 37-31 61-74 61-59 0-76-41-82-99-10-93 101-131 147-64 4 7 5 14 7 22l-32 3c-4-21-16-35-41-35" id="C"/><path fill="#3a414a" d="M177-190C167-65 218 103 67 71c-23-6-38-20-44-43l32-5c15 47 100 32 89-28v-30C133-14 115 1 83 1 29 1 15-40 15-95c0-56 16-97 71-98 29-1 48 16 59 35 1-10 0-23 2-32h30zM94-22c36 0 50-32 50-73 0-42-14-75-50-75-39 0-46 34-46 75s6 73 46 73" id="D"/><path fill="#3a414a" d="M117-194c89-4 53 116 60 194h-32v-121c0-31-8-49-39-48C34-167 62-67 57 0H25l-1-190h30c1 10-1 24 2 32 11-22 29-35 61-36" id="E"/><path fill="#3a414a" d="M24-231v-30h32v30H24zM24 0v-190h32V0H24" id="F"/><path fill="#3a414a" d="M9 0v-24l116-142H16v-24h144v24L44-24h123V0H9" id="G"/><g id="b"><use transform="matrix(0.06172839506172839,0,0,0.06172839506172839,0,0)" xlink:href="#z"/><use transform="matrix(0.06172839506172839,0,0,0.06172839506172839,7.345679012345679,0)" xlink:href="#B"/><use transform="matrix(0.06172839506172839,0,0,0.06172839506172839,19.691358024691358,0)" xlink:href="#C"/><use transform="matrix(0.06172839506172839,0,0,0.06172839506172839,30.80246913580247,0)" xlink:href="#y"/><use transform="matrix(0.06172839506172839,0,0,0.06172839506172839,43.148148148148145,0)" xlink:href="#D"/><use transform="matrix(0.06172839506172839,0,0,0.06172839506172839,55.49382716049382,0)" xlink:href="#E"/><use transform="matrix(0.06172839506172839,0,0,0.06172839506172839,67.8395061728395,0)" xlink:href="#F"/><use transform="matrix(0.06172839506172839,0,0,0.06172839506172839,72.71604938271605,0)" xlink:href="#G"/><use transform="matrix(0.06172839506172839,0,0,0.06172839506172839,83.82716049382717,0)" xlink:href="#B"/><use transform="matrix(0.06172839506172839,0,0,0.06172839506172839,96.17283950617285,0)" xlink:href="#z"/></g><path fill="#3a414a" d="M30-248c118-7 216 8 213 122C240-48 200 0 122 0H30v-248zM63-27c89 8 146-16 146-99s-60-101-146-95v194" id="H"/><path fill="#3a414a" d="M135-143c-3-34-86-38-87 0 15 53 115 12 119 90S17 21 10-45l28-5c4 36 97 45 98 0-10-56-113-15-118-90-4-57 82-63 122-42 12 7 21 19 24 35" id="I"/><path fill="#3a414a" d="M115-194c55 1 70 41 70 98S169 2 115 4C84 4 66-9 55-30l1 105H24l-1-265h31l2 30c10-21 28-34 59-34zm-8 174c40 0 45-34 45-75s-6-73-45-74c-42 0-51 32-51 76 0 43 10 73 51 73" id="J"/><path fill="#3a414a" d="M24 0v-261h32V0H24" id="K"/><path fill="#3a414a" d="M141-36C126-15 110 5 73 4 37 3 15-17 15-53c-1-64 63-63 125-63 3-35-9-54-41-54-24 1-41 7-42 31l-33-3c5-37 33-52 76-52 45 0 72 20 72 64v82c-1 20 7 32 28 27v20c-31 9-61-2-59-35zM48-53c0 20 12 33 32 33 41-3 63-29 60-74-43 2-92-5-92 41" id="L"/><path fill="#3a414a" d="M179-190L93 31C79 59 56 82 12 73V49c39 6 53-20 64-50L1-190h34L92-34l54-156h33" id="M"/><g id="c"><use transform="matrix(0.06172839506172839,0,0,0.06172839506172839,0,0)" xlink:href="#H"/><use transform="matrix(0.06172839506172839,0,0,0.06172839506172839,15.987654320987653,0)" xlink:href="#F"/><use transform="matrix(0.06172839506172839,0,0,0.06172839506172839,20.864197530864196,0)" xlink:href="#I"/><use transform="matrix(0.06172839506172839,0,0,0.06172839506172839,31.975308641975307,0)" xlink:href="#J"/><use transform="matrix(0.06172839506172839,0,0,0.06172839506172839,44.32098765432099,0)" xlink:href="#K"/><use transform="matrix(0.06172839506172839,0,0,0.06172839506172839,49.19753086419753,0)" xlink:href="#L"/><use transform="matrix(0.06172839506172839,0,0,0.06172839506172839,61.54320987654321,0)" xlink:href="#M"/></g><path fill="#3a414a" d="M101-234c-31-9-42 10-38 44h38v23H63V0H32v-167H5v-23h27c-7-52 17-82 69-68v24" id="N"/><g id="d"><use transform="matrix(0.06172839506172839,0,0,0.06172839506172839,0,0)" xlink:href="#y"/><use transform="matrix(0.06172839506172839,0,0,0.06172839506172839,12.345679012345679,0)" xlink:href="#N"/></g><g id="e"><use transform="matrix(0.06172839506172839,0,0,0.06172839506172839,0,0)" xlink:href="#z"/><use transform="matrix(0.06172839506172839,0,0,0.06172839506172839,7.345679012345679,0)" xlink:href="#B"/><use transform="matrix(0.06172839506172839,0,0,0.06172839506172839,19.691358024691358,0)" xlink:href="#C"/><use transform="matrix(0.06172839506172839,0,0,0.06172839506172839,30.80246913580247,0)" xlink:href="#y"/><use transform="matrix(0.06172839506172839,0,0,0.06172839506172839,43.148148148148145,0)" xlink:href="#D"/><use transform="matrix(0.06172839506172839,0,0,0.06172839506172839,55.49382716049382,0)" xlink:href="#E"/><use transform="matrix(0.06172839506172839,0,0,0.06172839506172839,67.8395061728395,0)" xlink:href="#F"/><use transform="matrix(0.06172839506172839,0,0,0.06172839506172839,72.71604938271605,0)" xlink:href="#G"/><use transform="matrix(0.06172839506172839,0,0,0.06172839506172839,83.82716049382717,0)" xlink:href="#B"/><use transform="matrix(0.06172839506172839,0,0,0.06172839506172839,96.17283950617285,0)" xlink:href="#A"/></g><g id="f"><use transform="matrix(0.06172839506172839,0,0,0.06172839506172839,0,0)" xlink:href="#C"/><use transform="matrix(0.06172839506172839,0,0,0.06172839506172839,11.11111111111111,0)" xlink:href="#x"/><use transform="matrix(0.06172839506172839,0,0,0.06172839506172839,23.45679012345679,0)" xlink:href="#y"/><use transform="matrix(0.06172839506172839,0,0,0.06172839506172839,35.80246913580247,0)" xlink:href="#z"/><use transform="matrix(0.06172839506172839,0,0,0.06172839506172839,43.148148148148145,0)" xlink:href="#A"/></g><path fill="#3a414a" d="M143 4C61 4 22-44 18-125c-5-107 100-154 193-111 17 8 29 25 37 43l-32 9c-13-25-37-40-76-40-61 0-88 39-88 99 0 61 29 100 91 101 35 0 62-11 79-27v-45h-74v-28h105v86C228-13 192 4 143 4" id="O"/><path fill="#3a414a" d="M59-47c-2 24 18 29 38 22v24C64 9 27 4 27-40v-127H5v-23h24l9-43h21v43h35v23H59v120" id="P"/><g id="g"><use transform="matrix(0.06172839506172839,0,0,0.06172839506172839,0,0)" xlink:href="#O"/><use transform="matrix(0.06172839506172839,0,0,0.06172839506172839,17.28395061728395,0)" xlink:href="#L"/><use transform="matrix(0.06172839506172839,0,0,0.06172839506172839,29.629629629629626,0)" xlink:href="#P"/><use transform="matrix(0.06172839506172839,0,0,0.06172839506172839,35.80246913580247,0)" xlink:href="#B"/></g><path fill="#3a414a" d="M0 4l72-265h28L28 4H0" id="Q"/><use transform="matrix(0.06172839506172839,0,0,0.06172839506172839,0,0)" xlink:href="#Q" id="h"/><path fill="#3a414a" d="M137 0h-34L2-248h35l83 218 83-218h36" id="R"/><g id="i"><use transform="matrix(0.06172839506172839,0,0,0.06172839506172839,0,0)" xlink:href="#w"/><use transform="matrix(0.06172839506172839,0,0,0.06172839506172839,15.987654320987653,0)" xlink:href="#R"/></g><path fill="#3a414a" d="M210-169c-67 3-38 105-44 169h-31v-121c0-29-5-50-35-48C34-165 62-65 56 0H25l-1-190h30c1 10-1 24 2 32 10-44 99-50 107 0 11-21 27-35 58-36 85-2 47 119 55 194h-31v-121c0-29-5-49-35-48" id="S"/><path fill="#3a414a" d="M115-194c53 0 69 39 70 98 0 66-23 100-70 100C84 3 66-7 56-30L54 0H23l1-261h32v101c10-23 28-34 59-34zm-8 174c40 0 45-34 45-75 0-40-5-75-45-74-42 0-51 32-51 76 0 43 10 73 51 73" id="T"/><g id="j"><use transform="matrix(0.06172839506172839,0,0,0.06172839506172839,0,0)" xlink:href="#C"/><use transform="matrix(0.06172839506172839,0,0,0.06172839506172839,11.11111111111111,0)" xlink:href="#y"/><use transform="matrix(0.06172839506172839,0,0,0.06172839506172839,23.45679012345679,0)" xlink:href="#S"/><use transform="matrix(0.06172839506172839,0,0,0.06172839506172839,41.91358024691358,0)" xlink:href="#T"/><use transform="matrix(0.06172839506172839,0,0,0.06172839506172839,54.25925925925926,0)" xlink:href="#F"/><use transform="matrix(0.06172839506172839,0,0,0.06172839506172839,59.135802469135804,0)" xlink:href="#E"/><use transform="matrix(0.06172839506172839,0,0,0.06172839506172839,71.48148148148148,0)" xlink:href="#F"/><use transform="matrix(0.06172839506172839,0,0,0.06172839506172839,76.35802469135803,0)" xlink:href="#E"/><use transform="matrix(0.06172839506172839,0,0,0.06172839506172839,88.70370370370371,0)" xlink:href="#D"/></g><g id="k"><use transform="matrix(0.06172839506172839,0,0,0.06172839506172839,0,0)" xlink:href="#K"/><use transform="matrix(0.06172839506172839,0,0,0.06172839506172839,4.876543209876543,0)" xlink:href="#y"/><use transform="matrix(0.06172839506172839,0,0,0.06172839506172839,17.22222222222222,0)" xlink:href="#D"/><use transform="matrix(0.06172839506172839,0,0,0.06172839506172839,29.5679012345679,0)" xlink:href="#F"/><use transform="matrix(0.06172839506172839,0,0,0.06172839506172839,34.44444444444444,0)" xlink:href="#C"/></g><path fill="#3a414a" d="M185-189c-5-48-123-54-124 2 14 75 158 14 163 119 3 78-121 87-175 55-17-10-28-26-33-46l33-7c5 56 141 63 141-1 0-78-155-14-162-118-5-82 145-84 179-34 5 7 8 16 11 25" id="U"/><g id="l"><use transform="matrix(0.06172839506172839,0,0,0.06172839506172839,0,0)" xlink:href="#U"/><use transform="matrix(0.06172839506172839,0,0,0.06172839506172839,14.814814814814813,0)" xlink:href="#C"/><use transform="matrix(0.06172839506172839,0,0,0.06172839506172839,25.925925925925924,0)" xlink:href="#y"/><use transform="matrix(0.06172839506172839,0,0,0.06172839506172839,38.2716049382716,0)" xlink:href="#z"/><use transform="matrix(0.06172839506172839,0,0,0.06172839506172839,45.61728395061728,0)" xlink:href="#B"/></g><g id="m"><use transform="matrix(0.06172839506172839,0,0,0.06172839506172839,0,0)" xlink:href="#A"/><use transform="matrix(0.06172839506172839,0,0,0.06172839506172839,12.345679012345679,0)" xlink:href="#F"/><use transform="matrix(0.06172839506172839,0,0,0.06172839506172839,17.22222222222222,0)" xlink:href="#I"/><use transform="matrix(0.06172839506172839,0,0,0.06172839506172839,28.333333333333332,0)" xlink:href="#J"/><use transform="matrix(0.06172839506172839,0,0,0.06172839506172839,40.67901234567901,0)" xlink:href="#K"/><use transform="matrix(0.06172839506172839,0,0,0.06172839506172839,45.55555555555556,0)" xlink:href="#L"/><use transform="matrix(0.06172839506172839,0,0,0.06172839506172839,57.901234567901234,0)" xlink:href="#M"/></g><g id="n"><use transform="matrix(0.06172839506172839,0,0,0.06172839506172839,0,0)" xlink:href="#U"/><use transform="matrix(0.06172839506172839,0,0,0.06172839506172839,14.814814814814813,0)" xlink:href="#B"/><use transform="matrix(0.06172839506172839,0,0,0.06172839506172839,27.160493827160494,0)" xlink:href="#S"/><use transform="matrix(0.06172839506172839,0,0,0.06172839506172839,45.61728395061728,0)" xlink:href="#F"/><use transform="matrix(0.06172839506172839,0,0,0.06172839506172839,50.49382716049382,0)" xlink:href="#P"/><use transform="matrix(0.06172839506172839,0,0,0.06172839506172839,56.666666666666664,0)" xlink:href="#y"/><use transform="matrix(0.06172839506172839,0,0,0.06172839506172839,69.01234567901234,0)" xlink:href="#E"/><use transform="matrix(0.06172839506172839,0,0,0.06172839506172839,81.35802469135803,0)" xlink:href="#B"/></g><path fill="#3a414a" d="M145-31C134-9 116 4 85 4 32 4 16-35 15-94c0-59 17-99 70-100 32-1 48 14 60 33 0-11-1-24 2-32h30l-1 268h-32zM93-21c41 0 51-33 51-76s-8-73-50-73c-40 0-46 35-46 75s5 74 45 74" id="V"/><path fill="#3a414a" d="M84 4C-5 8 30-112 23-190h32v120c0 31 7 50 39 49 72-2 45-101 50-169h31l1 190h-30c-1-10 1-25-2-33-11 22-28 36-60 37" id="W"/><g id="o"><use transform="matrix(0.06172839506172839,0,0,0.06172839506172839,0,0)" xlink:href="#V"/><use transform="matrix(0.06172839506172839,0,0,0.06172839506172839,12.345679012345679,0)" xlink:href="#W"/><use transform="matrix(0.06172839506172839,0,0,0.06172839506172839,24.691358024691358,0)" xlink:href="#L"/><use transform="matrix(0.06172839506172839,0,0,0.06172839506172839,37.03703703703704,0)" xlink:href="#E"/><use transform="matrix(0.06172839506172839,0,0,0.06172839506172839,49.382716049382715,0)" xlink:href="#P"/><use transform="matrix(0.06172839506172839,0,0,0.06172839506172839,55.55555555555556,0)" xlink:href="#F"/><use transform="matrix(0.06172839506172839,0,0,0.06172839506172839,60.4320987654321,0)" xlink:href="#G"/><use transform="matrix(0.06172839506172839,0,0,0.06172839506172839,71.54320987654322,0)" xlink:href="#B"/><use transform="matrix(0.06172839506172839,0,0,0.06172839506172839,83.8888888888889,0)" xlink:href="#z"/></g><path fill="#3a414a" d="M67-125c0 54 23 88 75 88 28 0 53-7 68-21v-34h-60v-39h108v91C232-14 192 4 140 4 58 4 20-42 15-125 8-236 126-280 215-234c19 10 29 26 37 47l-47 15c-11-23-29-39-63-39-53 1-75 33-75 86" id="X"/><path fill="#3a414a" d="M133-34C117-15 103 5 69 4 32 3 11-16 11-54c-1-60 55-63 116-61 1-26-3-47-28-47-18 1-26 9-28 27l-52-2c7-38 36-58 82-57s74 22 75 68l1 82c-1 14 12 18 25 15v27c-30 8-71 5-69-32zm-48 3c29 0 43-24 42-57-32 0-66-3-65 30 0 17 8 27 23 27" id="Y"/><path fill="#3a414a" d="M115-3C79 11 28 4 28-45v-112H4v-33h27l15-45h31v45h36v33H77v99c-1 23 16 31 38 25v30" id="Z"/><path fill="#3a414a" d="M185-48c-13 30-37 53-82 52C43 2 14-33 14-96s30-98 90-98c62 0 83 45 84 108H66c0 31 8 55 39 56 18 0 30-7 34-22zm-45-69c5-46-57-63-70-21-2 6-4 13-4 21h74" id="aa"/><g id="p"><use transform="matrix(0.04938271604938272,0,0,0.04938271604938272,0,0)" xlink:href="#X"/><use transform="matrix(0.04938271604938272,0,0,0.04938271604938272,13.827160493827162,0)" xlink:href="#Y"/><use transform="matrix(0.04938271604938272,0,0,0.04938271604938272,23.703703703703706,0)" xlink:href="#Z"/><use transform="matrix(0.04938271604938272,0,0,0.04938271604938272,29.58024691358025,0)" xlink:href="#aa"/></g><path fill="#3a414a" d="M194 0L95-120 63-95V0H30v-248h33v124l119-124h40L117-140 236 0h-42" id="ab"/><g id="q"><use transform="matrix(0.06172839506172839,0,0,0.06172839506172839,0,0)" xlink:href="#ab"/><use transform="matrix(0.06172839506172839,0,0,0.06172839506172839,14.814814814814813,0)" xlink:href="#B"/><use transform="matrix(0.06172839506172839,0,0,0.06172839506172839,27.160493827160494,0)" xlink:href="#M"/></g><g id="r"><use transform="matrix(0.06172839506172839,0,0,0.06172839506172839,0,0)" xlink:href="#I"/><use transform="matrix(0.06172839506172839,0,0,0.06172839506172839,11.11111111111111,0)" xlink:href="#F"/><use transform="matrix(0.06172839506172839,0,0,0.06172839506172839,15.987654320987653,0)" xlink:href="#D"/><use transform="matrix(0.06172839506172839,0,0,0.06172839506172839,28.333333333333332,0)" xlink:href="#E"/><use transform="matrix(0.06172839506172839,0,0,0.06172839506172839,40.67901234567901,0)" xlink:href="#L"/><use transform="matrix(0.06172839506172839,0,0,0.06172839506172839,53.02469135802469,0)" xlink:href="#P"/><use transform="matrix(0.06172839506172839,0,0,0.06172839506172839,59.19753086419753,0)" xlink:href="#W"/><use transform="matrix(0.06172839506172839,0,0,0.06172839506172839,71.54320987654322,0)" xlink:href="#z"/><use transform="matrix(0.06172839506172839,0,0,0.06172839506172839,78.8888888888889,0)" xlink:href="#B"/></g><path fill="#3a414a" d="M147 0H94L2-248h55l64 206c17-72 42-137 63-206h54" id="ac"/><path fill="#3a414a" d="M4 7l51-268h42L46 7H4" id="ad"/><path fill="#3a414a" d="M140-251c80 0 125 45 125 126S219 4 139 4C58 4 15-44 15-125s44-126 125-126zm-1 214c52 0 73-35 73-88 0-50-21-86-72-86-52 0-73 35-73 86s22 88 72 88" id="ae"/><path fill="#3a414a" d="M190-63c-7 42-38 67-86 67-59 0-84-38-90-98-12-110 154-137 174-36l-49 2c-2-19-15-32-35-32-30 0-35 28-38 64-6 74 65 87 74 30" id="af"/><g id="s"><use transform="matrix(0.04938271604938272,0,0,0.04938271604938272,0,0)" xlink:href="#ac"/><use transform="matrix(0.04938271604938272,0,0,0.04938271604938272,11.851851851851853,0)" xlink:href="#ad"/><use transform="matrix(0.04938271604938272,0,0,0.04938271604938272,16.790123456790127,0)" xlink:href="#ae"/><use transform="matrix(0.04938271604938272,0,0,0.04938271604938272,30.617283950617285,0)" xlink:href="#af"/><use transform="matrix(0.04938271604938272,0,0,0.04938271604938272,40.49382716049384,0)" xlink:href="#Z"/></g><path fill="#333" d="M230 0l2-204L168 0h-37L68-204 70 0H24v-248h70l56 185 57-185h69V0h-46" id="ag"/><path fill="#333" d="M110-194c64 0 96 36 96 99 0 64-35 99-97 99-61 0-95-36-95-99 0-62 34-99 96-99zm-1 164c35 0 45-28 45-65 0-40-10-65-43-65-34 0-45 26-45 65 0 36 10 65 43 65" id="ah"/><path fill="#333" d="M88-194c31-1 46 15 58 34l-1-101h50l1 261h-48c-2-10 0-23-3-31C134-8 116 4 84 4 32 4 16-41 15-95c0-56 19-97 73-99zm17 164c33 0 40-30 41-66 1-37-9-64-41-64s-38 30-39 65c0 43 13 65 39 65" id="ai"/><path fill="#333" d="M185-48c-13 30-37 53-82 52C43 2 14-33 14-96s30-98 90-98c62 0 83 45 84 108H66c0 31 8 55 39 56 18 0 30-7 34-22zm-45-69c5-46-57-63-70-21-2 6-4 13-4 21h74" id="aj"/><g id="t"><use transform="matrix(0.04938271604938272,0,0,0.04938271604938272,0,0)" xlink:href="#ag"/><use transform="matrix(0.04938271604938272,0,0,0.04938271604938272,14.765432098765434,0)" xlink:href="#ah"/><use transform="matrix(0.04938271604938272,0,0,0.04938271604938272,25.58024691358025,0)" xlink:href="#ai"/><use transform="matrix(0.04938271604938272,0,0,0.04938271604938272,36.39506172839506,0)" xlink:href="#aj"/></g><path fill="#333" d="M240-174c0 40-23 61-54 70L253 0h-59l-57-94H76V0H24v-248c93 4 217-23 216 74zM76-134c48-2 112 12 112-38 0-48-66-32-112-35v73" id="ak"/><path fill="#333" d="M115-3C79 11 28 4 28-45v-112H4v-33h27l15-45h31v45h36v33H77v99c-1 23 16 31 38 25v30" id="al"/><g id="u"><use transform="matrix(0.04938271604938272,0,0,0.04938271604938272,0,0)" xlink:href="#ak"/><use transform="matrix(0.04938271604938272,0,0,0.04938271604938272,12.790123456790125,0)" xlink:href="#ah"/><use transform="matrix(0.04938271604938272,0,0,0.04938271604938272,23.60493827160494,0)" xlink:href="#ah"/><use transform="matrix(0.04938271604938272,0,0,0.04938271604938272,34.41975308641975,0)" xlink:href="#al"/></g><path fill="#333" d="M24-248c93 1 206-16 204 79-1 75-69 88-152 82V0H24v-248zm52 121c47 0 100 7 100-41 0-47-54-39-100-39v80" id="am"/><path fill="#333" d="M24 0v-248h195v40H76v63h132v40H76v65h150V0H24" id="an"/><path fill="#333" d="M169-182c-1-43-94-46-97-3 18 66 151 10 154 114 3 95-165 93-204 36-6-8-10-19-12-30l50-8c3 46 112 56 116 5-17-69-150-10-154-114-4-87 153-88 188-35 5 8 8 18 10 28" id="ao"/><g id="v"><use transform="matrix(0.04938271604938272,0,0,0.04938271604938272,0,0)" xlink:href="#am"/><use transform="matrix(0.04938271604938272,0,0,0.04938271604938272,11.851851851851853,0)" xlink:href="#an"/><use transform="matrix(0.04938271604938272,0,0,0.04938271604938272,23.703703703703706,0)" xlink:href="#ao"/></g></defs></g></svg>